<?xml version="1.0" encoding="UTF-8" standalone="no"?>
<!-- Created with Inkscape (http://www.inkscape.org/) -->

<svg
   xmlns:dc="http://purl.org/dc/elements/1.1/"
   xmlns:cc="http://creativecommons.org/ns#"
   xmlns:rdf="http://www.w3.org/1999/02/22-rdf-syntax-ns#"
   xmlns:svg="http://www.w3.org/2000/svg"
   xmlns="http://www.w3.org/2000/svg"
   xmlns:sodipodi="http://sodipodi.sourceforge.net/DTD/sodipodi-0.dtd"
   xmlns:inkscape="http://www.inkscape.org/namespaces/inkscape"
   width="210mm"
   height="297mm"
   viewBox="0 0 210 297"
   version="1.1"
   id="svg842"
   inkscape:version="0.92.2 (unknown)"
   sodipodi:docname="peng.svg">
  <defs
     id="defs836" />
  <sodipodi:namedview
     id="base"
     pagecolor="#787878"
     bordercolor="#666666"
     borderopacity="1.0"
     inkscape:pageopacity="0"
     inkscape:pageshadow="2"
     inkscape:zoom="2.8"
     inkscape:cx="-1018.6422"
     inkscape:cy="813.07567"
     inkscape:document-units="mm"
     inkscape:current-layer="layer1"
     showgrid="false"
     inkscape:window-width="1920"
     inkscape:window-height="1055"
     inkscape:window-x="0"
     inkscape:window-y="0"
     inkscape:window-maximized="1"
     inkscape:snap-global="false" />
  <metadata
     id="metadata839">
    <rdf:RDF>
      <cc:Work
         rdf:about="">
        <dc:format>image/svg+xml</dc:format>
        <dc:type
           rdf:resource="http://purl.org/dc/dcmitype/StillImage" />
        <dc:title></dc:title>
      </cc:Work>
    </rdf:RDF>
  </metadata>
  <g
     inkscape:label="Layer 1"
     inkscape:groupmode="layer"
     id="layer1">
    <g
       id="g1640"
       inkscape:export-filename="/home/vit/ProjectG70/godot3/polar_olympics/game/textures/peng_ico.png"
       inkscape:export-xdpi="65"
       inkscape:export-ydpi="65">
      <path
         style="opacity:1;vector-effect:none;fill:#ffffff;fill-opacity:1;stroke:none;stroke-width:0.1;stroke-linecap:round;stroke-linejoin:round;stroke-miterlimit:4;stroke-dasharray:none;stroke-opacity:1"
         d="m -281.89493,105.31285 c -5.42002,-0.29127 -9.13597,-3.55095 -10.23509,-8.978395 -0.20768,-1.025576 -0.30399,-2.084965 -0.30219,-3.324144 l 0.002,-1.17137 0.87491,-0.564676 c 1.85917,-1.199952 3.21089,-2.356265 3.67787,-3.146191 0.18529,-0.313417 0.19617,-0.357861 0.1275,-0.523457 -0.14676,-0.354314 -0.56842,-0.314573 -0.80054,0.07545 -0.51962,0.873157 -1.59728,1.738213 -4.45362,3.575022 -0.82571,0.530975 -1.70263,1.115088 -1.94871,1.298026 -0.24611,0.182942 -0.45489,0.325158 -0.464,0.316051 -0.0333,-0.03325 0.10469,-1.107114 0.22279,-1.734466 0.2446,-1.299496 0.65022,-2.476179 1.29941,-3.769564 0.78015,-1.554245 1.58647,-2.737243 3.54051,-5.194427 2.20891,-2.777705 2.55241,-3.26091 2.816,-3.961159 0.29082,-0.772686 0.35181,-1.180492 0.3506,-2.34421 -9.4e-4,-0.869005 -0.0385,-1.360841 -0.19157,-2.508737 -0.28375,-2.127577 -0.24502,-3.09089 0.17733,-4.412304 0.57906,-1.811394 1.68129,-3.109021 3.29865,-3.883362 1.0841,-0.519044 2.1613,-0.734491 3.38953,-0.67794 1.15839,0.05335 1.99285,0.269849 2.98257,0.773866 1.60077,0.815192 2.67146,2.126731 3.155,3.864787 0.15849,0.569594 0.16645,0.660464 0.16519,1.88947 -9.4e-4,1.153096 -0.0188,1.393804 -0.17293,2.251918 -0.13065,0.731401 -0.17838,1.21525 -0.19994,2.026364 -0.0331,1.248476 0.0567,1.943266 0.37622,2.906922 0.47547,1.434295 1.04052,2.278383 3.28016,4.89988 0.54047,0.632627 1.23514,1.462339 1.5437,1.843803 1.86949,2.311214 2.91815,4.578397 3.16401,6.840573 l 0.0414,0.382097 -0.35196,-0.238823 c -0.19366,-0.131355 -0.97352,-0.596565 -1.73315,-1.033808 -2.14261,-1.233247 -3.05784,-1.882129 -3.88899,-2.757227 -0.42834,-0.450965 -0.56461,-0.507047 -0.81168,-0.333995 -0.0951,0.0666 -0.13337,0.154468 -0.13337,0.305645 0,0.187569 0.0643,0.27645 0.55546,0.766922 0.61095,0.61016 1.49346,1.291754 2.35771,1.820962 l 0.56063,0.343297 0.0425,0.566517 c 0.0716,0.954632 -0.008,3.243951 -0.14488,4.129387 -0.44872,2.918558 -1.49123,5.179216 -3.15521,6.842086 -2.14602,2.14457 -5.03075,3.05323 -9.0137,2.8392 z m 2.26965,-28.005824 c 2.07527,-0.361893 3.81301,-1.762972 4.68122,-3.7743 0.30268,-0.701173 0.40342,-1.154371 0.40451,-1.819605 9.5e-4,-0.681874 -0.14383,-1.18568 -0.49001,-1.7042 -0.67239,-1.00691 -1.90984,-1.361769 -2.95477,-0.847348 -0.85967,0.423209 -1.17392,1.24155 -1.03924,2.70623 0.0992,1.079851 0.0804,1.43321 -0.0955,1.779453 -0.31693,0.624247 -0.90694,0.98918 -1.6726,1.03453 -0.91817,0.05439 -1.66379,-0.407909 -1.92477,-1.193378 -0.0423,-0.127083 -0.0703,-0.731415 -0.0737,-1.586447 -0.006,-1.309228 -0.0126,-1.399692 -0.14886,-1.736608 -0.1901,-0.471777 -0.52081,-0.819208 -0.9829,-1.032624 -0.33021,-0.152501 -0.44351,-0.17327 -0.94565,-0.17327 -0.5098,0 -0.60881,0.01884 -0.93079,0.176766 -0.44081,0.216275 -0.84005,0.615173 -1.09568,1.094776 -1.02119,1.915944 0.11264,4.772925 2.46031,6.199159 0.68117,0.413817 1.79944,0.820577 2.5387,0.923427 0.45775,0.06369 1.79477,0.03624 2.26965,-0.04656 z m -0.38416,-3.549783 c 0.46575,-0.482377 0.84658,-0.907988 0.84627,-0.945805 -9.4e-4,-0.135165 -0.35615,-0.685592 -0.54439,-0.843986 -0.38064,-0.320303 -0.65122,-0.419657 -1.13649,-0.417308 -0.32635,0.0014 -0.52906,0.03739 -0.73614,0.130057 -0.33548,0.150113 -0.81849,0.583343 -0.97557,0.87503 l -0.11054,0.205428 0.16602,0.197408 c 0.2818,0.334905 1.56386,1.672258 1.60509,1.674297 0.0214,9.5e-4 0.41998,-0.392745 0.88575,-0.875116 z"
         id="path1536"
         inkscape:connector-curvature="0" />
      <path
         sodipodi:nodetypes="ccsccccscscccc"
         inkscape:connector-curvature="0"
         d="m -288.1126,87.743021 c -1.29607,2.349511 -6.59453,4.592143 -7.74536,6.156446 0.004,-6.937824 4.3637,-10.591022 7.44685,-14.895012 1.42369,-1.987428 0.69883,-4.596024 0.46805,-6.872324 -0.28651,-2.824977 0.93481,-5.8954 3.50039,-7.256084 3.29852,-1.866367 8.13358,-0.841212 9.92218,2.678213 1.04212,1.885134 0.83355,4.107617 0.45668,6.145013 -0.38353,2.093947 -0.11431,4.295058 1.12422,6.12837 2.61009,3.863357 7.18611,6.88541 7.19262,13.128673 -0.82113,-0.812529 -2.11162,-1.463951 -3.44834,-2.236935 -1.24806,-0.72172 -2.5364,-1.54942 -3.5206,-2.713173 m 3.47537,2.717308 c 0.75922,7.727446 -2.38835,15.026844 -11.35141,15.026844 -8.83998,0.18172 -12.69402,-6.298891 -12.23405,-14.048033"
         style="opacity:1;vector-effect:none;fill:none;fill-opacity:0.93714282;stroke:#283464;stroke-width:1.707;stroke-linecap:round;stroke-linejoin:round;stroke-miterlimit:4;stroke-dasharray:none;stroke-opacity:0.96470588"
         id="path1503" />
      <path
         inkscape:connector-curvature="0"
         id="path1530"
         d="m -281.89493,105.31285 c -5.42002,-0.29127 -9.13597,-3.55095 -10.23509,-8.978395 -0.20768,-1.025576 -0.30399,-2.084965 -0.30219,-3.324144 l 0.002,-1.17137 0.87491,-0.564676 c 1.85917,-1.199952 3.21089,-2.356265 3.67787,-3.146191 0.18529,-0.313417 0.19617,-0.357861 0.1275,-0.523457 -0.14676,-0.354314 -0.56842,-0.314573 -0.80054,0.07545 -0.51962,0.873157 -1.59728,1.738213 -4.45362,3.575022 -0.82571,0.530975 -1.70263,1.115088 -1.94871,1.298026 -0.24611,0.182942 -0.45489,0.325158 -0.464,0.316051 -0.0333,-0.03325 0.10469,-1.107114 0.22279,-1.734466 0.2446,-1.299496 0.65022,-2.476179 1.29941,-3.769564 0.78015,-1.554245 1.58647,-2.737243 3.54051,-5.194427 2.20891,-2.777705 2.55241,-3.26091 2.816,-3.961159 0.29082,-0.772686 0.35181,-1.180492 0.3506,-2.34421 -9.4e-4,-0.869005 -0.0385,-1.360841 -0.19157,-2.508737 -0.28375,-2.127577 -0.24502,-3.09089 0.17733,-4.412304 0.57906,-1.811394 1.68129,-3.109021 3.29865,-3.883362 1.0841,-0.519044 2.1613,-0.734491 3.38953,-0.67794 1.15839,0.05335 1.99285,0.269849 2.98257,0.773866 1.60077,0.815192 2.67146,2.126731 3.155,3.864787 0.15849,0.569594 0.16645,0.660464 0.16519,1.88947 -9.4e-4,1.153096 -0.0188,1.393804 -0.17293,2.251918 -0.13065,0.731401 -0.17838,1.21525 -0.19994,2.026364 -0.0331,1.248476 0.0567,1.943266 0.37622,2.906922 0.47547,1.434295 1.04052,2.278383 3.28016,4.89988 0.54047,0.632627 1.23514,1.462339 1.5437,1.843803 1.86949,2.311214 2.91815,4.578397 3.16401,6.840573 l 0.0414,0.382097 -0.35196,-0.238823 c -0.19366,-0.131355 -0.97352,-0.596565 -1.73315,-1.033808 -2.14261,-1.233247 -3.05784,-1.882129 -3.88899,-2.757227 -0.42834,-0.450965 -0.56461,-0.507047 -0.81168,-0.333995 -0.0951,0.0666 -0.13337,0.154468 -0.13337,0.305645 0,0.187569 0.0643,0.27645 0.55546,0.766922 0.61095,0.61016 1.49346,1.291754 2.35771,1.820962 l 0.56063,0.343297 0.0425,0.566517 c 0.0716,0.954632 -0.008,3.243951 -0.14488,4.129387 -0.44872,2.918558 -1.49123,5.179216 -3.15521,6.842086 -2.14602,2.14457 -5.03075,3.05323 -9.0137,2.8392 z m 2.26965,-28.005824 c 2.07527,-0.361893 3.81301,-1.762972 4.68122,-3.7743 0.30268,-0.701173 0.40342,-1.154371 0.40451,-1.819605 9.5e-4,-0.681874 -0.14383,-1.18568 -0.49001,-1.7042 -0.67239,-1.00691 -1.90984,-1.361769 -2.95477,-0.847348 -0.85967,0.423209 -1.17392,1.24155 -1.03924,2.70623 0.0992,1.079851 0.0804,1.43321 -0.0955,1.779453 -0.31693,0.624247 -0.90694,0.98918 -1.6726,1.03453 -0.91817,0.05439 -1.66379,-0.407909 -1.92477,-1.193378 -0.0423,-0.127083 -0.0703,-0.731415 -0.0737,-1.586447 -0.006,-1.309228 -0.0126,-1.399692 -0.14886,-1.736608 -0.1901,-0.471777 -0.52081,-0.819208 -0.9829,-1.032624 -0.33021,-0.152501 -0.44351,-0.17327 -0.94565,-0.17327 -0.5098,0 -0.60881,0.01884 -0.93079,0.176766 -0.44081,0.216275 -0.84005,0.615173 -1.09568,1.094776 -1.02119,1.915944 0.11264,4.772925 2.46031,6.199159 0.68117,0.413817 1.79944,0.820577 2.5387,0.923427 0.45775,0.06369 1.79477,0.03624 2.26965,-0.04656 z m -0.38416,-3.549783 c 0.46575,-0.482377 0.84658,-0.907988 0.84627,-0.945805 -9.4e-4,-0.135165 -0.35615,-0.685592 -0.54439,-0.843986 -0.38064,-0.320303 -0.65122,-0.419657 -1.13649,-0.417308 -0.32635,0.0014 -0.52906,0.03739 -0.73614,0.130057 -0.33548,0.150113 -0.81849,0.583343 -0.97557,0.87503 l -0.11054,0.205428 0.16602,0.197408 c 0.2818,0.334905 1.56386,1.672258 1.60509,1.674297 0.0214,9.5e-4 0.41998,-0.392745 0.88575,-0.875116 z"
         style="opacity:0.35800003;vector-effect:none;fill:none;fill-opacity:1;stroke:#273260;stroke-width:3.141;stroke-linecap:round;stroke-linejoin:round;stroke-miterlimit:4;stroke-dasharray:none;stroke-opacity:0.97647059" />
      <path
         sodipodi:nodetypes="scsscss"
         inkscape:connector-curvature="0"
         d="m -286.84499,72.96657 c -0.81321,-2.742635 1.39114,-4.71473 3.22715,-3.354529 0.77238,0.696682 0.61253,1.919646 0.54305,2.908972 -0.24429,3.47897 4.84132,3.067815 4.37119,-0.04493 -0.17084,-1.131886 -0.21767,-2.2154 0.47856,-2.864054 1.83602,-1.360199 4.19793,0.663625 3.22718,3.35453 -2.1898,6.069988 -10.33498,5.099946 -11.84713,0 z"
         style="color:#000000;clip-rule:nonzero;display:inline;overflow:visible;visibility:visible;opacity:1;isolation:auto;mix-blend-mode:normal;color-interpolation:sRGB;color-interpolation-filters:linearRGB;solid-color:#000000;solid-opacity:1;fill:#ffffff;fill-opacity:1;fill-rule:evenodd;stroke:#283362;stroke-width:0.68461859;stroke-linecap:butt;stroke-linejoin:miter;stroke-miterlimit:4;stroke-dasharray:none;stroke-dashoffset:0;stroke-opacity:0.97647059;color-rendering:auto;image-rendering:auto;shape-rendering:auto;text-rendering:auto;enable-background:accumulate"
         id="path1473" />
      <path
         sodipodi:nodetypes="cccc"
         inkscape:connector-curvature="0"
         id="path1499"
         d="m -282.36042,72.709947 c 0.4254,0.543158 1.0192,1.054377 1.47105,1.576417 0.50523,-0.534658 0.9446,-0.982139 1.43598,-1.486186 -0.56082,-1.379504 -2.16662,-1.287527 -2.90703,-0.09024 z"
         style="color:#000000;clip-rule:nonzero;display:inline;overflow:visible;visibility:visible;opacity:1;isolation:auto;mix-blend-mode:normal;color-interpolation:sRGB;color-interpolation-filters:linearRGB;solid-color:#000000;solid-opacity:1;fill:#ffffff;fill-opacity:1;fill-rule:evenodd;stroke:#283362;stroke-width:0.47558081px;stroke-linecap:butt;stroke-linejoin:miter;stroke-miterlimit:4;stroke-dasharray:none;stroke-dashoffset:0;stroke-opacity:0.97647059;color-rendering:auto;image-rendering:auto;shape-rendering:auto;text-rendering:auto;enable-background:accumulate" />
      <path
         sodipodi:nodetypes="ccc"
         inkscape:connector-curvature="0"
         id="path1497"
         d="m -286.22439,71.331895 c 0.30227,1.45905 2.54154,1.435239 2.5294,0.343488 -0.91783,0.31244 -1.7887,0.220563 -2.5294,-0.343488 z"
         style="color:#000000;font-style:normal;font-variant:normal;font-weight:normal;font-stretch:normal;font-size:medium;line-height:normal;font-family:sans-serif;font-variant-ligatures:normal;font-variant-position:normal;font-variant-caps:normal;font-variant-numeric:normal;font-variant-alternates:normal;font-feature-settings:normal;text-indent:0;text-align:start;text-decoration:none;text-decoration-line:none;text-decoration-style:solid;text-decoration-color:#000000;letter-spacing:normal;word-spacing:normal;text-transform:none;writing-mode:lr-tb;direction:ltr;text-orientation:mixed;dominant-baseline:auto;baseline-shift:baseline;text-anchor:start;white-space:normal;shape-padding:0;clip-rule:nonzero;display:inline;overflow:visible;visibility:visible;opacity:1;isolation:auto;mix-blend-mode:normal;color-interpolation:sRGB;color-interpolation-filters:linearRGB;solid-color:#000000;solid-opacity:1;vector-effect:none;fill:#283362;fill-opacity:0.97647059;fill-rule:evenodd;stroke:none;stroke-width:0.47558081px;stroke-linecap:butt;stroke-linejoin:miter;stroke-miterlimit:4;stroke-dasharray:none;stroke-dashoffset:0;stroke-opacity:1;color-rendering:auto;image-rendering:auto;shape-rendering:auto;text-rendering:auto;enable-background:accumulate" />
      <path
         style="color:#000000;font-style:normal;font-variant:normal;font-weight:normal;font-stretch:normal;font-size:medium;line-height:normal;font-family:sans-serif;font-variant-ligatures:normal;font-variant-position:normal;font-variant-caps:normal;font-variant-numeric:normal;font-variant-alternates:normal;font-feature-settings:normal;text-indent:0;text-align:start;text-decoration:none;text-decoration-line:none;text-decoration-style:solid;text-decoration-color:#000000;letter-spacing:normal;word-spacing:normal;text-transform:none;writing-mode:lr-tb;direction:ltr;text-orientation:mixed;dominant-baseline:auto;baseline-shift:baseline;text-anchor:start;white-space:normal;shape-padding:0;clip-rule:nonzero;display:inline;overflow:visible;visibility:visible;opacity:1;isolation:auto;mix-blend-mode:normal;color-interpolation:sRGB;color-interpolation-filters:linearRGB;solid-color:#000000;solid-opacity:1;vector-effect:none;fill:#283362;fill-opacity:0.97647059;fill-rule:evenodd;stroke:none;stroke-width:0.47558081px;stroke-linecap:butt;stroke-linejoin:miter;stroke-miterlimit:4;stroke-dasharray:none;stroke-dashoffset:0;stroke-opacity:1;color-rendering:auto;image-rendering:auto;shape-rendering:auto;text-rendering:auto;enable-background:accumulate"
         d="m -275.50949,71.331895 c -0.30227,1.45905 -2.54154,1.435239 -2.5294,0.343488 0.91783,0.31244 1.7887,0.220563 2.5294,-0.343488 z"
         id="path1577"
         inkscape:connector-curvature="0"
         sodipodi:nodetypes="ccc" />
    </g>
  </g>
</svg>
