<?xml version="1.0" encoding="UTF-8" standalone="no"?>
<!-- Created with Inkscape (http://www.inkscape.org/) -->

<svg
   xmlns:dc="http://purl.org/dc/elements/1.1/"
   xmlns:cc="http://creativecommons.org/ns#"
   xmlns:rdf="http://www.w3.org/1999/02/22-rdf-syntax-ns#"
   xmlns:svg="http://www.w3.org/2000/svg"
   xmlns="http://www.w3.org/2000/svg"
   xmlns:xlink="http://www.w3.org/1999/xlink"
   xmlns:sodipodi="http://sodipodi.sourceforge.net/DTD/sodipodi-0.dtd"
   xmlns:inkscape="http://www.inkscape.org/namespaces/inkscape"
   width="210mm"
   height="297mm"
   viewBox="0 0 210 297"
   version="1.1"
   id="svg8"
   inkscape:version="0.92.2 (unknown)"
   sodipodi:docname="splash.svg">
  <defs
     id="defs2">
    <linearGradient
       inkscape:collect="always"
       id="linearGradient2112">
      <stop
         style="stop-color:#29619f;stop-opacity:0.08380952"
         offset="0"
         id="stop2104" />
      <stop
         id="stop2106"
         offset="0.44520527"
         style="stop-color:#2b6eae;stop-opacity:0.31047618" />
      <stop
         id="stop2108"
         offset="0.72782373"
         style="stop-color:#3291d5;stop-opacity:1" />
      <stop
         style="stop-color:#2a8dd3;stop-opacity:1"
         offset="1"
         id="stop2110" />
    </linearGradient>
    <linearGradient
       inkscape:collect="always"
       id="linearGradient2102">
      <stop
         style="stop-color:#29619f;stop-opacity:0.23809524"
         offset="0"
         id="stop2094" />
      <stop
         id="stop2096"
         offset="0.49540204"
         style="stop-color:#2b6eae;stop-opacity:0.43619049" />
      <stop
         id="stop2098"
         offset="0.72782373"
         style="stop-color:#3291d5;stop-opacity:1" />
      <stop
         style="stop-color:#2a8dd3;stop-opacity:1"
         offset="1"
         id="stop2100" />
    </linearGradient>
    <linearGradient
       inkscape:collect="always"
       id="linearGradient2092">
      <stop
         style="stop-color:#29619f;stop-opacity:0.26095238"
         offset="0"
         id="stop2084" />
      <stop
         id="stop2086"
         offset="0.42349091"
         style="stop-color:#2b6eae;stop-opacity:0.47238097" />
      <stop
         id="stop2088"
         offset="0.72782373"
         style="stop-color:#3291d5;stop-opacity:1" />
      <stop
         style="stop-color:#2a8dd3;stop-opacity:1"
         offset="1"
         id="stop2090" />
    </linearGradient>
    <linearGradient
       id="linearGradient1302"
       inkscape:collect="always">
      <stop
         id="stop1298"
         offset="0"
         style="stop-color:#29619f;stop-opacity:1" />
      <stop
         style="stop-color:#2b6eae;stop-opacity:1;"
         offset="0.30663535"
         id="stop1890" />
      <stop
         style="stop-color:#3291d5;stop-opacity:1"
         offset="0.72782373"
         id="stop1304" />
      <stop
         id="stop1300"
         offset="1"
         style="stop-color:#2a8dd3;stop-opacity:1" />
    </linearGradient>
    <linearGradient
       inkscape:collect="always"
       id="linearGradient1184">
      <stop
         style="stop-color:#2b6bc2;stop-opacity:1;"
         offset="0"
         id="stop1180" />
      <stop
         style="stop-color:#ffffff;stop-opacity:0.58857143"
         offset="1"
         id="stop1182" />
    </linearGradient>
    <linearGradient
       id="linearGradient950"
       inkscape:collect="always">
      <stop
         id="stop946"
         offset="0"
         style="stop-color:#9ccaec;stop-opacity:1" />
      <stop
         id="stop948"
         offset="1"
         style="stop-color:#3d95d8;stop-opacity:1" />
    </linearGradient>
    <clipPath
       clipPathUnits="userSpaceOnUse"
       id="clipPath1174">
      <path
         id="path1176"
         d="m -765.57227,-731.8125 c -1.13615,0.0346 -2.47309,0.28855 -3.91601,0.72656 -3.84484,1.1681 -5.08283,3.29851 -3.77734,6.80274 0.96191,0.75541 6.25255,0.7556 8.03906,-0.34375 1.78643,-1.09939 3.77806,-3.22935 3.22851,-5.35938 -0.34356,-1.33129 -1.68063,-1.88387 -3.57422,-1.82617 z m 24.97071,0.9707 c -3.74065,0.0267 -7.57805,0.396 -11.36524,0.44336 -10.73994,0.13418 -4.94569,5.63557 -9.06836,7.00977 -4.12263,1.3742 -8.24516,1.9237 -10.71875,5.77148 -2.47362,3.84779 4.12097,6.59571 7.96875,6.59571 3.84779,0 4.3976,0.54909 3.02344,4.67187 -1.37427,4.12263 -5.22102,11.26799 -4.39648,15.39063 0.82458,4.12263 4.12276,0.82553 4.94726,4.39843 0.82454,3.57294 -4.94762,7.69591 -4.12304,12.91797 0.82446,5.22206 8.24452,1.92382 5.49609,8.79492 -2.74847,6.871 -5.49589,7.41959 -9.34375,15.11524 -3.84779,7.69557 -2.1997,11.2686 -4.39844,13.74219 -8.56017,5.40362 0.57661,10.27014 9.6211,6.59765 7.56272,-3.07083 6.17815,-9.40159 9.06836,-10.44531 7.03196,-2.53931 0.27598,-6.8709 5.49804,-12.64258 5.22206,-5.77168 7.14549,-9.34472 11.54297,-6.87109 4.39752,2.47358 0.27455,9.34532 -1.09961,14.01758 -1.3742,4.67232 -1.09974,7.69444 2.74805,8.24414 3.84778,0.54954 7.97136,-9.06807 11.26953,-7.96875 3.29809,1.09942 -0.82571,12.64273 8.24414,15.66601 9.06977,3.02332 4.94822,-3.0235 9.3457,-9.89453 4.39748,-6.87107 14.31092,-0.91097 17.52344,-2.02344 4.37718,-1.51585 -0.75788,-11.44413 1.16602,-14.74218 1.92389,-3.29817 4.39618,-3.84831 3.29687,-10.99415 -1.09943,-7.14592 -5.45815,-13.85873 -6.87109,-13.41796 -10.67093,2.6838 -10.83618,-7.41004 -14.01563,-9.11914 -9.44727,-3.48787 -16.16201,-0.19573 -17.58984,-12.09375 -0.9546,-7.95538 -7.14735,-5.77043 -6.59766,-12.0918 0.54955,-6.32137 6.87146,-8.79602 6.04688,-11.26953 -5.01818,-4.93944 -10.98433,-5.84718 -17.21875,-5.80274 z m -50.73633,4.97852 c -1.78477,-7.9e-4 -3.85044,1.24062 -3.84961,3.02539 10e-4,1.78307 2.06647,3.43247 3.84961,3.43164 1.78314,8.3e-4 3.23091,-1.44342 3.23242,-3.22656 9.1e-4,-1.7847 -1.44765,-3.23126 -3.23242,-3.23047 z m 72.37891,98.67578 c -3.54176,10e-4 -4.76075,2.48559 -4.75977,6.02734 10e-4,3.54014 1.21975,6.79743 4.75977,6.79883 3.54175,9.8e-4 6.41274,-2.8684 6.41406,-6.41015 9.8e-4,-3.54342 -2.87068,-6.417 -6.41406,-6.41602 z m -57.5625,1.49414 c -0.60087,-0.0263 -1.23709,0.038 -1.90625,0.20703 -3.60454,0.91068 -5.38814,2.06924 -6.75391,3.25586 -4.96588,4.31456 5.31278,3.60779 0.74023,6.00586 -4.92812,2.58433 -6.90965,8.31643 -4.23828,10.95117 4.0489,3.67125 12.54821,-0.96791 16.45703,-6.14844 3.9669,-5.25754 1.5095,-14.01763 -4.29882,-14.27148 z"
         style="color:#000000;clip-rule:nonzero;display:inline;overflow:visible;visibility:visible;opacity:1;isolation:auto;mix-blend-mode:normal;color-interpolation:sRGB;color-interpolation-filters:linearRGB;solid-color:#000000;solid-opacity:1;fill:url(#linearGradient1178);fill-opacity:1;fill-rule:evenodd;stroke:none;stroke-width:2.17664385px;stroke-linecap:butt;stroke-linejoin:miter;stroke-miterlimit:4;stroke-dasharray:none;stroke-dashoffset:0;stroke-opacity:1;color-rendering:auto;image-rendering:auto;shape-rendering:auto;text-rendering:auto;enable-background:accumulate"
         inkscape:connector-curvature="0" />
    </clipPath>
    <linearGradient
       inkscape:collect="always"
       xlink:href="#linearGradient950"
       id="linearGradient1178"
       gradientUnits="userSpaceOnUse"
       x1="-204.41164"
       y1="-168.27223"
       x2="-189.895"
       y2="-183.28334" />
    <linearGradient
       inkscape:collect="always"
       xlink:href="#linearGradient950"
       id="linearGradient1264"
       gradientUnits="userSpaceOnUse"
       gradientTransform="scale(3.7795275)"
       x1="-204.41164"
       y1="-168.27223"
       x2="-189.895"
       y2="-183.28334" />
    <linearGradient
       inkscape:collect="always"
       xlink:href="#linearGradient1184"
       id="linearGradient1266"
       gradientUnits="userSpaceOnUse"
       x1="-727.34723"
       y1="-718.95825"
       x2="-779.0733"
       y2="-602.52972" />
    <radialGradient
       inkscape:collect="always"
       xlink:href="#linearGradient1302"
       id="radialGradient1294"
       cx="-688.07379"
       cy="-715.80695"
       fx="-688.07379"
       fy="-715.80695"
       r="125.81334"
       gradientTransform="matrix(0.27260206,0,0,0.25768505,-592.20607,13.910457)"
       gradientUnits="userSpaceOnUse" />
    <radialGradient
       inkscape:collect="always"
       xlink:href="#linearGradient1302"
       id="radialGradient1983"
       cx="-170.31654"
       cy="-175.80453"
       fx="-170.31654"
       fy="-175.80453"
       r="15.827339"
       gradientTransform="matrix(1.878604,0,0,2.3630137,-300.29989,224.7876)"
       gradientUnits="userSpaceOnUse" />
    <radialGradient
       inkscape:collect="always"
       xlink:href="#linearGradient1302"
       id="radialGradient1987"
       gradientUnits="userSpaceOnUse"
       gradientTransform="matrix(7.1002356,0,0,8.9310754,1913.5628,1152.4481)"
       cx="-170.31654"
       cy="-175.80453"
       fx="-170.31654"
       fy="-175.80453"
       r="15.827339" />
    <radialGradient
       inkscape:collect="always"
       xlink:href="#linearGradient1302"
       id="radialGradient1996"
       gradientUnits="userSpaceOnUse"
       gradientTransform="matrix(1.878604,0,0,2.3630136,293.55028,227.94493)"
       cx="-170.31654"
       cy="-175.80453"
       fx="-170.31654"
       fy="-175.80453"
       r="15.827339" />
    <radialGradient
       inkscape:collect="always"
       xlink:href="#linearGradient1302"
       id="radialGradient2001"
       gradientUnits="userSpaceOnUse"
       gradientTransform="matrix(2.1935388,0,0,2.7591563,428.69914,295.00837)"
       cx="-170.31654"
       cy="-175.80453"
       fx="-170.31654"
       fy="-175.80453"
       r="15.827339" />
    <radialGradient
       inkscape:collect="always"
       xlink:href="#linearGradient2112"
       id="radialGradient2040"
       gradientUnits="userSpaceOnUse"
       gradientTransform="matrix(2.1935388,0,0,2.7591563,-147.34578,313.79649)"
       cx="-168.97626"
       cy="-175.61081"
       fx="-168.97626"
       fy="-175.61081"
       r="15.827339" />
    <radialGradient
       inkscape:collect="always"
       xlink:href="#linearGradient2102"
       id="radialGradient2042"
       gradientUnits="userSpaceOnUse"
       gradientTransform="matrix(1.878604,0,0,2.3630136,-285.39988,245.22114)"
       cx="-170.31654"
       cy="-175.80453"
       fx="-170.31654"
       fy="-175.80453"
       r="15.827339" />
    <radialGradient
       inkscape:collect="always"
       xlink:href="#linearGradient2092"
       id="radialGradient2068"
       gradientUnits="userSpaceOnUse"
       gradientTransform="matrix(1.878604,0,0,2.3630137,-374.15975,245.84357)"
       cx="-170.31654"
       cy="-175.80453"
       fx="-170.31654"
       fy="-175.80453"
       r="15.827339" />
  </defs>
  <sodipodi:namedview
     id="base"
     pagecolor="#ffffff"
     bordercolor="#666666"
     borderopacity="1.0"
     inkscape:pageopacity="0.0"
     inkscape:pageshadow="2"
     inkscape:zoom="0.35"
     inkscape:cx="-2479.981"
     inkscape:cy="1381.5636"
     inkscape:document-units="mm"
     inkscape:current-layer="layer1"
     showgrid="false"
     inkscape:window-width="1920"
     inkscape:window-height="1055"
     inkscape:window-x="0"
     inkscape:window-y="0"
     inkscape:window-maximized="1"
     inkscape:snap-global="false" />
  <metadata
     id="metadata5">
    <rdf:RDF>
      <cc:Work
         rdf:about="">
        <dc:format>image/svg+xml</dc:format>
        <dc:type
           rdf:resource="http://purl.org/dc/dcmitype/StillImage" />
        <dc:title></dc:title>
      </cc:Work>
    </rdf:RDF>
  </metadata>
  <g
     inkscape:label="Layer 1"
     inkscape:groupmode="layer"
     id="layer1">
    <image
       y="-298.64374"
       x="-277.18295"
       id="image891"
       xlink:href="file:///home/vit/%D0%9A%D0%B0%D1%80%D1%82%D0%B8%D0%BD%D0%BA%D0%B8/screen/scr2018-02-24-13:04:10.png"
       preserveAspectRatio="none"
       height="285.75"
       width="846.66669" />
    <image
       y="-382.66144"
       x="566.00818"
       id="image823"
       xlink:href="file:///home/vit/%D0%9A%D0%B0%D1%80%D1%82%D0%B8%D0%BD%D0%BA%D0%B8/screen/scr2018-02-24-12:38:54.png"
       preserveAspectRatio="none"
       height="381.164"
       width="395.99704" />
    <path
       style="color:#000000;clip-rule:nonzero;display:inline;overflow:visible;visibility:visible;opacity:1;isolation:auto;mix-blend-mode:normal;color-interpolation:sRGB;color-interpolation-filters:linearRGB;solid-color:#000000;solid-opacity:1;fill:url(#radialGradient1294);fill-opacity:1;fill-rule:evenodd;stroke:none;stroke-width:0.5933575px;stroke-linecap:butt;stroke-linejoin:miter;stroke-miterlimit:4;stroke-dasharray:none;stroke-dashoffset:0;stroke-opacity:1;color-rendering:auto;image-rendering:auto;shape-rendering:auto;text-rendering:auto;enable-background:accumulate"
       d="m -793.85919,-204.04956 c -2.24859,-0.0858 -2.37764,3.18279 -0.41263,3.9112 1.57338,0.52448 2.77235,-0.0746 2.77235,-0.0746 0,0 1.3484,1.31118 2.95922,2.80962 1.61084,1.49847 2.0231,1.8354 2.36025,1.49824 0.33716,-0.33718 0.0747,-2.51003 -3.29679,-5.39453 -1.90042,-1.97889 -3.3603,-2.71096 -4.3824,-2.74998 z m 29.2206,1.30444 c -0.0628,-0.006 -0.12502,-0.006 -0.18635,5.3e-4 -0.0654,0.007 -0.12982,0.0221 -0.19274,0.0452 -1.00658,0.37083 -1.64254,1.27139 -1.53658,2.64881 0.52979,2.06618 0.95351,4.13245 2.22501,3.54969 1.27147,-0.58277 2.01337,-1.64247 1.85444,-3.23183 -0.13974,-1.39688 -1.22066,-2.9167 -2.16378,-3.01246 z m -2.95923,8.52467 c -0.0759,0.007 -0.17255,0.0379 -0.29762,0.0953 -0.88938,0.40798 -1.62136,0.79756 -1.7783,1.4466 -0.15701,0.64905 -0.23579,1.37241 -0.8636,1.33533 -0.62778,-0.0371 -1.38626,-0.51937 -2.04025,-0.46374 -0.65395,0.0556 -1.80496,1.63195 -2.58972,1.53924 -0.78474,-0.0928 -0.18302,-1.44679 -1.04621,-1.48387 -0.86324,-0.0371 -1.04659,0.55656 -1.90982,0.48238 -0.86322,-0.0741 -0.99405,-1.00119 -1.98807,0.25982 -0.81091,0.89012 -1.72615,4.24653 -0.52285,5.09958 1.20328,0.85303 1.09856,1.85413 4.23758,2.22501 3.13901,0.37089 4.21126,-0.12965 4.499,-0.61177 0.28775,-0.48215 0.49718,-1.00122 0.73261,-1.05686 0.2354,-0.0555 0.36648,0.12943 0.70653,0.35194 0.34008,0.22253 1.77857,-0.42605 2.27559,-1.42744 0.49701,-1.00139 1.46505,-1.68773 1.5435,-2.76329 0.0784,-1.07555 1.62177,-3.28241 1.62177,-3.28241 0,0 -0.96797,0.31548 -1.75274,-0.3892 -0.63761,-0.57254 -0.39471,-1.31659 -0.75818,-1.35662 -0.021,-0.002 -0.0439,-0.002 -0.0692,0 z m 2.58014,1.74582 c 0.13254,0.47683 1.35076,0.34448 1.35076,0.34448 0,0 -1.00673,1.58914 0.39719,2.51625 1.40392,0.92714 4.05328,-1.58908 2.5434,-3.15197 -1.50988,-1.56285 -3.25827,-0.58289 -4.29135,0.29124 z m -39.66785,-1.29965 c -1.91943,0.0103 -1.98324,1.71379 -1.68193,2.20052 0.34434,0.55627 0.60951,0.66193 0.3711,1.00628 -0.23839,0.34436 -1.64227,0.31824 -1.8012,0.92749 -0.159,0.60925 0.52931,1.88042 2.03919,1.4301 1.50989,-0.45032 1.27167,-0.92683 2.1723,-0.58247 0.90063,0.34434 1.13908,1.40345 2.46353,1.50942 1.32445,0.10584 1.43059,-1.21821 2.49016,-0.58248 4.43609,2.38793 3.91554,-0.24173 1.16175,-2.42414 -1.98204,-1.55102 -4.69279,-3.03725 -6.27411,-3.37717 -0.35429,-0.0761 -0.66658,-0.10899 -0.94079,-0.10755 z m 18.47092,1.84911 c -1.31968,-0.001 -2.50886,0.52624 -2.73774,1.54617 -0.36622,1.63191 -1.3865,1.89121 -1.96198,2.33629 -0.57547,0.44506 0.078,0.64948 -1.256,0.85347 -1.33408,0.20397 -1.30761,1.09371 -2.11853,1.11224 -0.81091,0.0185 -1.38673,-0.51916 -2.06686,0.0187 -0.68011,0.53779 -0.75836,1.00159 -1.4908,1.13141 -0.73243,0.12984 -2.51114,-0.11137 -2.82506,0.42646 -0.3139,0.53779 0.54908,0.53784 0.49676,1.31669 -0.6278,0.68614 -2.04044,-0.20393 -2.77287,1.20542 -0.73244,1.40938 1.96229,1.77994 3.84571,2.44756 1.88339,0.66759 3.84524,1.50199 4.42073,0.74166 0.5755,-0.76032 -1.38655,-1.78021 -1.15111,-2.39218 0.23544,-0.61196 4.53539,1.39091 4.94411,0.35247 0.84716,-2.15227 1.29336,-0.82403 1.75222,-1.33533 0.34005,-0.42651 -0.54919,-1.53918 -0.0783,-1.85443 0.47085,-0.31526 1.46469,0.40823 1.67394,-0.0554 0.20928,-0.4636 -0.62764,-1.03826 0.34023,-1.37206 0.96785,-0.33379 3.0605,-0.7419 3.21744,-1.22405 0.15702,-0.48214 -0.86318,-0.63068 0.15707,-0.79757 1.02018,-0.16691 1.83094,-0.37096 1.8571,-1.53925 0.0262,-1.16829 -0.0259,-1.2978 -1.90927,-2.33628 -0.70629,-0.38944 -1.54502,-0.58107 -2.33682,-0.58195 z m 24.69923,6.21022 v 5.3e-4 c -0.0694,-0.001 -0.14095,-4.3e-4 -0.21404,0.003 -1.28637,0.0563 -3.08881,0.76966 -3.94474,0.89714 -1.24498,0.18546 -3.04654,0.0266 -3.04654,0.0266 0,0 -2.25166,1.03297 -1.50996,2.86073 0.7417,1.82775 0.84769,2.01324 1.93377,1.50995 1.08605,-0.5033 2.09297,-1.80158 2.19892,-1.88106 0.10607,-0.0794 0.42381,-0.0526 0.42381,0.18582 0,0.2384 -4.23864,4.92701 -4.13269,6.62231 0.10586,1.6953 2.27852,1.66858 2.43745,2.6222 0.15901,0.9536 -0.55567,2.43857 -0.59313,3.6748 -0.0374,1.23622 1.04001,1.48828 0.63678,2.09776 -0.43388,0.65582 -1.55506,0.14326 -2.44809,0.0452 -0.12086,0.30558 -0.20319,0.39865 -0.39293,0.85189 -0.14802,0.35362 -0.40574,0.54456 -0.7651,0.85028 0.48329,2.11847 4.05596,2.87295 2.0328,3.04761 -0.80088,0.0431 -2.84675,-1.68559 -3.70834,-0.97381 -0.86163,0.71176 1.20287,1.85826 0.63678,2.50985 -0.37893,0.43619 -0.82439,-0.37477 -1.72345,-0.18741 -0.89906,0.18726 0.0897,1.27419 -0.26196,1.46097 -1.30093,0.69093 -1.40329,-2.00018 -2.28517,-2.02267 v -5.4e-4 c -0.86161,0.0179 -2.28514,1.06768 -2.60356,1.34863 -0.31843,0.28098 -0.281,1.48007 0.31838,2.22928 0.59938,0.74923 -0.20688,3.79619 0.5878,6.78949 0.7947,2.99327 3.44329,2.30444 4.95316,2.86072 1.50988,0.55627 1.74846,2.4104 2.38421,3.17858 0.63573,0.76819 2.22509,1.56296 3.09924,0.55639 0.87412,-1.0066 2.35757,0.21171 2.46354,-0.90087 0.10585,-1.11253 -1.98698,-1.88048 -2.62273,-3.46982 -0.63574,-1.58936 -2.48949,-1.05961 -2.67491,-2.35758 -0.18545,-1.29797 2.2777,-0.52957 2.38367,-2.19838 0.10584,-1.66881 -2.06607,-3.78846 -2.22501,-4.58313 -0.159,-0.79468 0.47705,-0.58247 0.47705,-0.58247 0,0 2.59593,2.01315 3.62902,0.84762 1.03308,-1.16553 0.92695,-2.19839 0.92695,-2.19839 0,0 1.93984,1.66427 3.251,0.95251 1.31114,-0.71179 1.49806,-2.21011 2.47205,-0.74912 0.97401,1.461 1.98576,2.28506 2.43531,1.16122 0.44953,-1.12383 -2.88445,-2.50963 -3.03429,-5.05698 -0.1498,-2.54737 3.10883,-3.25944 3.10883,-5.35727 0,-2.09784 -0.93616,-1.38624 -1.42317,-2.88468 -0.48698,-1.49845 0.52429,-1.6105 0.0373,-2.35971 -0.48701,-0.74924 -1.798,-0.89927 -1.798,-0.89926 0,0 2.84715,-0.48715 1.64839,-2.4726 -1.19877,-1.98545 -1.34865,-0.56177 -2.69727,-1.798 -1.34862,-1.23621 -2.69747,-2.21031 -1.19902,-3.52146 1.49844,-1.31114 2.66009,-1.12386 1.91087,-2.28517 -0.20488,-0.31754 -0.59653,-0.44156 -1.08296,-0.45044 z m -52.51422,2.22395 c -0.0751,-0.003 -0.14819,-0.003 -0.21936,5.3e-4 -2.03364,0.0948 -2.45098,2.63784 -0.88649,2.67118 1.27147,0 1.3244,-0.6095 1.58929,0.0528 0.26489,0.66223 0.18552,1.90731 2.14568,1.72187 1.9602,-0.18546 2.01361,-0.92725 2.64935,-0.55639 0.63573,0.37084 0.13251,0.82167 0.95357,0.84816 0.82117,0.0265 1.56243,0.23802 1.19157,-0.60963 -0.37084,-0.84767 0.0534,-1.88078 -1.72133,-2.35758 -1.77478,-0.47683 -2.11964,-0.4503 -3.84145,-1.16548 -0.71301,-0.40794 -1.33502,-0.58516 -1.86083,-0.60537 z m 33.63759,2.31871 c -0.26695,0.0369 -0.36559,0.71083 -1.18039,0.96369 -1.01309,0.33642 -2.56073,0.95274 -1.19848,2.05996 0.37461,0.41208 0.0373,0.67451 -0.89927,1.31136 -0.93652,0.63683 -1.38589,0.67417 -1.49824,1.27356 -0.11236,0.59936 0.0375,1.76068 -0.11235,3.33405 -0.14985,1.57338 -0.37455,2.09793 -0.63678,3.10937 -0.26222,1.01146 1.46084,0.97394 0.86146,1.57332 -0.59943,0.59936 -0.82432,1.72362 -0.78692,1.91088 0.0374,0.18734 1.34878,-0.63715 2.36024,-0.15015 1.01146,0.48701 0.3747,1.9483 0.71186,2.54766 0.33716,0.59938 1.46088,0.0745 2.62219,-0.86199 1.16129,-0.93649 2.1725,-0.14975 4.0081,-0.11235 1.8356,0.0375 2.13556,-1.31097 3.0721,-2.32244 0.63929,-0.69041 1.36361,-0.63369 1.99872,-0.71665 l 0.5138,-0.71877 c -0.56844,-0.1242 -1.52222,-0.18845 -1.72559,-0.55 -0.33715,-0.59938 0.71149,-0.44938 1.19849,-0.86146 0.48699,-0.41206 -0.18726,-0.86191 -0.63678,-1.08668 -0.44955,-0.22475 -0.56194,-0.33707 0.11233,-1.16122 0.67437,-0.82414 0.37482,-1.76079 -0.0373,-2.99703 -0.41205,-1.23621 -1.42384,-3.63342 -2.95975,-5.16932 -1.53592,-1.53592 -2.06012,0.67432 -2.54713,0.41209 -0.48698,-0.26223 -0.0753,-0.52461 -0.97434,-0.5995 -0.89907,-0.0749 -1.27351,-0.29951 -1.91034,-0.97382 -0.15922,-0.16856 -0.26668,-0.22684 -0.35567,-0.21456 z m 25.89134,2.06049 c -0.81976,-0.004 -1.5813,0.43644 -1.92898,1.52912 0,0 -0.63566,2.03959 2.03973,2.01311 2.67541,-0.0265 2.56926,-2.35756 1.35076,-3.09926 -0.45694,-0.27813 -0.96965,-0.44048 -1.46151,-0.44297 z m 4.41488,0.0975 c -0.31911,0.0145 -0.62876,0.12714 -0.88703,0.37217 -0.2649,0.76817 0.71545,2.06619 1.43064,2.56949 0.71521,0.5033 1.45671,-0.29119 1.45671,-1.35076 0,-0.79468 -1.04299,-1.63437 -2.00032,-1.5909 z m -50.81685,4.18914 c -0.30973,0.009 -0.67418,0.0786 -1.06752,0.19805 -1.04811,0.31843 -1.38558,0.89918 -1.02971,1.85444 0.26221,0.20593 1.70446,0.20598 2.19147,-0.0936 0.48698,-0.2997 1.0299,-0.88033 0.8801,-1.46098 -0.0937,-0.36291 -0.45815,-0.51355 -0.97434,-0.49781 z m 6.80706,0.26461 c -1.01971,0.007 -2.06579,0.10794 -3.09819,0.12085 -2.92773,0.0366 -1.3482,1.53627 -2.47205,1.91088 -1.12384,0.37461 -2.24765,0.52441 -2.92195,1.57332 -0.67432,1.04892 1.12338,1.798 2.1723,1.798 1.04891,0 1.19879,0.14969 0.82419,1.27357 -0.37463,1.12383 -1.42327,3.07167 -1.19849,4.19552 0.22478,1.12383 1.12387,0.22504 1.34864,1.19902 0.22477,0.97399 -1.34874,2.09792 -1.12396,3.52146 0.22476,1.42355 2.24748,0.52444 1.49825,2.39752 -0.74924,1.87304 -1.49819,2.02259 -2.54713,4.12044 -1.04891,2.09783 -0.59964,3.07184 -1.19902,3.74615 -2.33352,1.47304 0.15719,2.79966 2.62273,1.79853 2.06161,-0.83711 1.68418,-2.5629 2.47206,-2.84742 1.91691,-0.69222 0.0752,-1.87301 1.49877,-3.44638 1.42355,-1.57338 1.94788,-2.5474 3.14664,-1.87308 1.19878,0.6743 0.0748,2.54756 -0.29975,3.82122 -0.37461,1.27369 -0.2998,2.09752 0.74911,2.24737 1.04892,0.14981 2.17301,-2.47197 3.0721,-2.1723 0.89907,0.29971 -0.22508,3.44644 2.24738,4.27059 2.47243,0.82416 1.34889,-0.82421 2.54765,-2.69727 1.19876,-1.87307 3.90118,-0.24833 4.77692,-0.5516 1.19323,-0.41322 -0.20659,-3.11968 0.31786,-4.01874 0.52446,-0.89909 1.19841,-1.04906 0.89874,-2.99703 -0.29971,-1.94798 -1.48791,-3.77792 -1.87308,-3.65776 -2.90892,0.73161 -2.95396,-2.01999 -3.82069,-2.4859 -2.57534,-0.95079 -4.40579,-0.0534 -4.79502,-3.29678 -0.26023,-2.16865 -1.94839,-1.57303 -1.79854,-3.29625 0.14981,-1.72321 1.87318,-2.39782 1.6484,-3.0721 -1.36797,-1.3465 -2.99435,-1.59395 -4.69387,-1.58183 z m -13.83083,1.35715 c -0.48653,-2.2e-4 -1.04964,0.3382 -1.04941,0.82473 2.8e-4,0.48607 0.56333,0.93569 1.04941,0.93547 0.48609,2.2e-4 0.88076,-0.39348 0.88117,-0.87956 2.5e-4,-0.48652 -0.39463,-0.88086 -0.88117,-0.88064 z m 44.47193,15.8844 c -0.41889,-0.014 -0.76337,0.15937 -0.97487,0.59684 0,0 -0.86101,1.47005 1.36408,3.17858 2.22507,1.70856 5.1786,1.70874 4.26473,0.0266 -0.71397,-1.31411 -3.15786,-3.75205 -4.65394,-3.80205 z m -24.74129,11.01482 c -0.96549,2.7e-4 -1.29779,0.67757 -1.29752,1.64306 2.7e-4,0.96505 0.33251,1.853 1.29752,1.85338 0.96549,2.7e-4 1.74813,-0.78193 1.74849,-1.74742 2.6e-4,-0.96594 -0.78255,-1.74928 -1.74849,-1.74902 z m -15.69165,0.4073 c -0.1638,-0.007 -0.33723,0.0104 -0.51965,0.0565 -0.9826,0.24825 -1.46881,0.56407 -1.84113,0.88754 -1.35371,1.17616 1.44828,0.98349 0.20179,1.63721 -1.34342,0.70449 -1.88359,2.26708 -1.15537,2.98532 1.10374,1.00078 3.42067,-0.26385 4.48623,-1.67608 1.08138,-1.4332 0.41148,-3.82123 -1.17187,-3.89044 z m 38.86442,1.9029 c -0.88006,0.0114 -1.23384,1.02145 -0.59047,2.50186 0.0374,0.65557 0.95529,2.35981 2.07913,1.40455 1.12385,-0.95527 1.3107,-1.96566 0.56171,-2.73454 -0.80476,-0.82614 -1.52235,-1.17873 -2.05037,-1.17187 z"
       id="path1279"
       inkscape:connector-curvature="0"
       inkscape:export-filename="/home/vit/ProjectG70/godot3/polar_olympics/game214/textures/water_splash.png"
       inkscape:export-xdpi="96"
       inkscape:export-ydpi="96" />
    <path
       style="color:#000000;clip-rule:nonzero;display:inline;overflow:visible;visibility:visible;opacity:1;isolation:auto;mix-blend-mode:normal;color-interpolation:sRGB;color-interpolation-filters:linearRGB;solid-color:#000000;solid-opacity:1;fill:url(#radialGradient2068);fill-opacity:1;fill-rule:evenodd;stroke:none;stroke-width:0.49704728px;stroke-linecap:butt;stroke-linejoin:miter;stroke-miterlimit:4;stroke-dasharray:none;stroke-dashoffset:0;stroke-opacity:1;color-rendering:auto;image-rendering:auto;shape-rendering:auto;text-rendering:auto;enable-background:accumulate"
       d="m -711.15049,-206.72333 c -0.10463,-0.006 -0.20247,0.0218 -0.29124,0.0883 -0.62129,2.39648 -1.10948,3.0182 0.62131,4.26082 1.73078,1.24263 4.7045,0.57666 4.7045,0.57666 0,0 -1.82012,-1.50863 -2.57455,-2.44059 -0.66016,-0.81546 -1.72766,-2.44701 -2.46002,-2.48522 z m 7.96733,9.97491 c -0.45103,-3e-4 -0.81674,0.36541 -0.81644,0.81644 2.4e-4,0.45065 0.36579,0.81577 0.81644,0.81547 0.45027,-2.4e-4 0.81523,-0.3652 0.81547,-0.81547 3e-4,-0.45065 -0.36482,-0.8162 -0.81547,-0.81644 z m 21.99919,0.22523 c -0.12004,0.006 -0.26295,0.0237 -0.43492,0.0515 -1.37576,0.2219 -1.90802,1.15399 -2.12992,2.35224 -0.93196,2.48522 -0.79884,4.52638 -0.62129,5.23648 0.17753,0.71005 0.88702,1.28671 1.15329,0.26599 0.26627,-1.02072 -0.0445,-1.90846 0.13301,-1.42028 0.17752,0.48817 -0.0883,1.28714 0.84362,0.79897 0.93196,-0.48818 0.84348,-0.88717 1.28728,-2.57358 0.44376,-1.68644 0.70923,-1.59807 0.48733,-3.0182 -0.19416,-1.24262 0.12135,-1.73737 -0.7184,-1.69307 z m 6.83926,0.0582 c -0.36393,-1.4e-4 -0.65904,0.47707 -0.65916,1.06592 -2.1e-4,0.58923 0.295,1.06704 0.65916,1.06689 0.36417,1.5e-4 0.65938,-0.47765 0.65917,-1.06689 -1.2e-4,-0.58886 -0.29524,-1.06607 -0.65917,-1.06592 z m -11.94758,0.199 c -0.57416,0.0541 -0.97413,0.47049 -1.27368,1.43581 -0.4438,1.59766 -1.02017,4.08315 -0.22133,3.7725 0.79882,-0.31066 1.81924,0.22219 2.1299,-1.81926 0.31065,-2.04144 0.93198,-3.10696 0,-3.32886 -0.23298,-0.0554 -0.4435,-0.0781 -0.63489,-0.0601 z m -34.16228,1.20768 c -1.11124,0.015 -1.83232,0.34504 -1.86007,0.76109 -0.0443,0.66569 1.46479,0.48735 1.2873,1.10866 -0.17753,0.62129 -1.68712,1.19865 -0.57763,2.08623 1.59765,1.02072 1.90856,0.53241 2.84054,-0.48831 0.93196,-1.02072 1.99681,0.39973 2.75123,0.0447 0.75445,-0.35501 0.26684,-2.44115 -2.08527,-3.1512 -0.88204,-0.26628 -1.68939,-0.37024 -2.3561,-0.36113 z m 26.93568,0.92904 c -0.10895,-0.0131 -0.2237,0.015 -0.34851,0.0981 -0.66569,0.44381 -0.35561,0.57694 -0.39998,1.86394 -0.0443,1.28699 -0.17771,1.81927 -0.17771,1.81927 0.93199,1.55329 1.82036,1.7308 2.30856,0.62131 0.48815,-1.10948 0.4877,-2.04076 -0.0892,-2.83958 -0.46877,-0.64904 -0.82068,-1.50354 -1.2931,-1.56298 z m -9.84386,0.86401 c -0.4699,0.008 -0.82268,0.11065 -0.88926,0.34367 -0.17753,0.62131 0.57609,1.68597 1.41931,2.26291 1.64203,0.88758 2.21923,1.28701 2.84054,0.31067 0.62131,-0.97633 0.17809,-1.8197 -0.84265,-2.35224 -0.63793,-0.33285 -1.74481,-0.57888 -2.52794,-0.56501 z m -1.42319,1.66491 c -0.16025,-0.004 -0.33229,0.077 -0.53201,0.27668 -0.79882,0.79882 -0.39899,1.59697 -0.39899,1.59697 0,0 -0.62171,-0.75445 -1.46492,-0.62131 -0.84319,0.13319 -0.97635,0.0885 -0.93198,1.06496 0.0443,0.97634 1.28728,1.50959 1.28728,1.50959 0.53255,0.66568 -0.44335,1.95198 0.53298,2.21825 0.97635,0.26628 2.13005,-2.26334 1.68627,-2.79589 -0.4438,-0.53254 -0.66583,-0.62131 -0.48832,-0.62131 0.17753,0 1.86436,1.81998 2.70755,0.84363 0.84322,-0.97635 0.0885,-1.37548 -0.84362,-2.12993 -0.69897,-0.56583 -1.0737,-1.33123 -1.55424,-1.34164 z m 14.09206,1.8814 c -0.38118,8e-5 -0.69016,0.30906 -0.69024,0.69024 8e-5,0.38118 0.30906,0.69016 0.69024,0.69024 0.38118,-8e-5 0.69016,-0.30906 0.69024,-0.69024 -8e-5,-0.38118 -0.30906,-0.69016 -0.69024,-0.69024 z m 5.17822,0.53394 c -0.27753,-4.2e-4 -0.50276,0.22438 -0.50286,0.50191 1.1e-4,0.27752 0.22534,0.50231 0.50286,0.50189 0.27715,-1e-4 0.5018,-0.22474 0.50191,-0.50189 -1e-4,-0.27716 -0.22475,-0.50181 -0.50191,-0.50191 z m 17.79275,1.63093 c -0.69326,-1e-5 -1.25526,0.56199 -1.25525,1.25525 0,0.69326 0.56199,1.25525 1.25525,1.25524 0.69325,0 1.25523,-0.56199 1.25523,-1.25524 10e-6,-0.69325 -0.56198,-1.25525 -1.25523,-1.25525 z m -3.48321,0.2825 c -0.52013,-1.4e-4 -0.94181,0.42154 -0.94167,0.94167 -1.4e-4,0.52013 0.42154,0.94181 0.94167,0.94167 0.51974,-4.1e-4 0.94083,-0.42193 0.94069,-0.94167 1.4e-4,-0.51974 -0.42095,-0.94126 -0.94069,-0.94167 z m -40.15114,0.16983 c -2.11268,-0.08 -2.87451,1.92993 0.27085,3.05606 4.21602,1.73077 2.39607,-2.35265 0.70966,-2.8852 -0.34949,-0.10539 -0.6787,-0.15949 -0.98051,-0.17077 z m 31.2703,0.39511 c -0.53721,4e-5 -0.9727,0.43553 -0.97274,0.97274 5e-5,0.53721 0.43553,0.97268 0.97274,0.97272 0.53721,-4e-5 0.97269,-0.43551 0.97274,-0.97272 -4e-5,-0.53721 -0.43553,-0.9727 -0.97274,-0.97274 z m -35.41851,2.8687 c -1.68294,-0.10595 -1.07615,2.5614 -0.46307,3.16479 1.15386,1.0651 2.48554,2.04186 2.84054,1.15427 0.3238,-0.80945 0.83205,-3.83378 -2.00954,-4.25887 -0.13319,-0.0333 -0.25574,-0.0532 -0.36793,-0.0601 z m 40.54916,0.81449 c -0.42362,0.0357 -0.7826,0.47519 -0.76887,1.68336 0.53349,0.56486 1.44324,-0.1253 1.47465,0.56501 0.0314,0.69037 0.6907,1.60006 1.31833,1.09797 0.62762,-0.5021 0.87843,-1.12951 0.40773,-1.66298 -0.47072,-0.53349 -0.94171,0.31399 -1.13,-0.59606 -0.10595,-0.5119 -0.75719,-1.13329 -1.30184,-1.0873 z m 4.01035,2.79298 c -0.31331,0.0353 -0.64479,0.22421 -1.0135,0.61646 -1.47491,1.56903 -1.8511,3.48336 -1.09797,4.04822 1.94561,0.37657 3.95331,0.62766 4.89476,0.18833 0.9414,-0.43933 1.56938,-0.72176 0.0631,-2.41631 -1.1297,-1.27094 -1.90641,-2.54262 -2.84637,-2.4367 z m -21.48467,0.90575 c -0.25382,-0.021 -0.60123,0.0633 -1.15038,0.33784 -1.75734,0.87868 -2.51089,-0.56465 -2.76192,0.75334 -0.25104,1.31799 -0.50152,3.07543 -1.50571,4.14238 -1.00419,1.06696 -1.06753,1.12964 -1.00477,3.38906 0.1883,3.70292 0.81612,5.33505 3.26381,6.15094 2.44771,0.81592 4.77038,1.69409 5.64906,0.62716 0.87866,-1.06696 0.31395,-1.69402 1.82024,-1.50572 1.50628,0.18829 1.7569,-0.31459 2.07071,-1.75811 0.31382,-1.44352 1.44314,-1.69396 1.00381,-3.82785 -0.43933,-2.1339 -0.56445,-2.19731 -2.07071,-4.95882 -1.50628,-2.76151 -2.63636,-2.32156 -3.82882,-2.57261 -0.81982,-0.17265 -0.92692,-0.73108 -1.48532,-0.77761 z m 21.01675,4.36664 c -0.39618,-0.0274 -0.70288,0.0823 -0.79701,0.39609 -0.1883,0.62762 0.565,1.38047 0.565,1.38047 2.2594,0.659 3.13857,-0.62713 3.13857,-0.62713 0,0 -0.65975,-0.25155 -1.56978,-0.72227 -0.45502,-0.23537 -0.9406,-0.39969 -1.33678,-0.42716 z m 4.98698,0.99702 c -0.0986,0.004 -0.20559,0.0229 -0.32327,0.0582 -0.94142,0.28241 -1.56922,0.25098 -1.82023,1.0669 -0.25108,0.8159 0.84713,1.09784 -0.47086,1.7882 -1.31799,0.69039 -1.91433,0.65951 -1.6319,1.97752 2.85566,2.57321 6.74747,-0.25102 5.93156,-2.32215 -0.71391,-1.81225 -0.99542,-2.59147 -1.6853,-2.56872 z m -52.73653,1.45328 c -0.49073,-3.8e-4 -0.88865,0.39753 -0.88828,0.88826 1.5e-4,0.49037 0.39791,0.8877 0.88828,0.88732 0.48999,-1.6e-4 0.88715,-0.39733 0.8873,-0.88732 3.7e-4,-0.49035 -0.39695,-0.8881 -0.8873,-0.88826 z m 2.61145,2.05225 c -0.21375,-0.0131 -0.38166,0.0783 -0.48152,0.34463 -0.26628,0.71009 -1.81954,0.84293 -1.55327,2.44058 0.0889,1.15386 1.15371,0.62147 1.68627,0.79898 0.53255,0.17752 0.6661,0.93165 1.77558,-0.0447 1.10947,-0.97632 1.95242,-0.44295 1.81928,-1.4193 -0.13319,-0.97633 -1.10977,-1.06579 -1.90859,-1.50959 -0.49927,-0.27736 -0.98151,-0.58896 -1.33775,-0.61064 z m 47.79518,5.02581 c -1.45263,0.0533 -2.3497,1.03541 -0.28446,1.85131 2.7929,0.25103 3.29502,-1.1926 1.3494,-1.72607 -0.36478,-0.0999 -0.72972,-0.13751 -1.06494,-0.1253 z m -3.72689,3.66572 c -0.11121,0.015 -0.22098,0.0605 -0.35434,0.13112 -0.53347,0.28243 -0.97274,0.62714 -0.97274,0.62714 -0.40796,1.72595 -0.21972,2.82484 1.0669,3.32691 1.28661,0.5021 1.81944,0.68973 2.47844,1.2232 0.65899,0.53348 1.22428,0.15743 1.60085,-0.25046 0.37657,-0.40795 0.81577,-0.37647 0.78439,0.37666 -0.0314,0.75314 0.50247,1.25495 1.41251,1.38048 0.91005,0.12549 1.31789,-0.47071 0.78441,-1.25525 -0.53347,-0.78452 0.0626,-0.94124 -0.65917,-1.75713 -0.72176,-0.81592 -1.44318,-0.7215 -2.35321,-1.47463 -0.91005,-0.75313 -0.69091,-0.65939 -2.07167,-1.50668 -1.03558,-0.63547 -1.38246,-0.86543 -1.71637,-0.82131 z m -46.22929,0.23785 c -0.22947,0.006 -0.49016,0.14371 -0.78828,0.52035 -1.19246,1.50629 -5e-5,1.85182 -0.18835,2.57358 -0.18827,0.72176 -1.31804,0.91041 -1.44355,1.4125 -0.12549,0.50209 0.62713,1.03487 0.62713,1.03487 1.41215,0.78452 2.5417,0.8479 3.10654,-0.0622 0.56486,-0.91005 0.78495,-1.91429 1.60085,-1.53775 0.81591,0.37659 -0.43894,1.56926 1.60083,2.00859 2.03975,0.43935 2.82371,-0.72189 2.76095,-1.82024 -0.0628,-1.09832 -0.62729,-1.94606 -1.19214,-1.695 -0.56484,0.25103 -1.66313,1.06704 -2.22797,0.37666 -0.56486,-0.69037 0.15667,-1.19202 -0.47084,-1.97654 -0.62762,-0.78452 -1.63201,-0.53414 -2.00858,-0.0321 -0.28243,0.37656 -0.68817,-0.81757 -1.37659,-0.80286 z m 11.04184,3.34536 c -1.00419,0 -0.50212,1.34944 -1.3494,1.44357 -2.29716,0.65459 -4.95067,5.21642 -4.17347,6.27522 0.94144,1.12973 1.88262,-1.12951 2.82405,-1.75714 0.94142,-0.62762 1.3809,-1.16065 1.72608,-2.07071 0.34519,-0.91003 -0.21988,-1.31853 0.5019,-2.07166 0.72174,-0.75315 1.47503,-1.81928 0.47084,-1.81928 z m 29.35394,0.40677 c -1.52545,0.0385 -0.51104,2.24133 0.36405,3.13859 0.87866,0.87866 1.94558,1.03616 2.99684,1.00477 1.05125,-0.0314 1.88244,-1.09885 -0.0475,-2.55806 -0.95422,-0.72148 -1.80482,-1.22421 -2.49689,-1.45909 -0.32942,-0.093 -0.59853,-0.13169 -0.81645,-0.12624 z m -20.12167,5.01512 c -0.46564,3.1e-4 -0.84288,0.37799 -0.84265,0.84363 3.1e-4,0.46526 0.37739,0.84234 0.84265,0.84265 0.46563,2.2e-4 0.84329,-0.37702 0.8436,-0.84265 2.3e-4,-0.46601 -0.37759,-0.84385 -0.8436,-0.84363 z m 25.37561,0.0398 c -1.80148,-0.0524 -0.55698,1.0241 0.11554,1.86489 0.17264,0.84729 0.86284,2.60472 1.94548,2.21245 1.08264,-0.39225 1.58487,-0.62725 1.72608,-1.09797 0.14127,-0.4707 0.36077,-0.21938 -0.47083,-1.38047 -0.83159,-1.16109 -0.54925,-1.09819 -1.53775,-1.36494 -0.78455,-0.14916 -1.36278,-0.22186 -1.7785,-0.23396 z m -30.56744,0.28929 c -0.82835,-0.0259 -1.0031,0.87041 -1.30959,1.35718 -0.37722,0.59912 -1.02074,-0.82045 -1.55329,-0.37666 -0.53254,0.4438 -0.31049,1.08728 -0.28833,1.86391 0.0222,0.77663 -1.46508,0.84334 -1.48725,1.73094 -0.0222,0.88757 0.51119,0.64309 0.75528,1.79693 0.24408,1.15385 -0.33299,3.15079 0.90963,3.39488 1.24263,0.24409 2.59592,-2.0635 3.37255,-4.01617 0.77663,-1.95268 1.15373,-4.8372 0.28833,-5.56946 -0.27043,-0.12061 -0.49616,-0.17547 -0.68733,-0.18148 z m 9.45263,0.73586 c -0.31917,-3.8e-4 -0.578,0.25847 -0.57761,0.57764 1.6e-4,0.31878 0.25883,0.57702 0.57761,0.57664 0.31841,-1.5e-4 0.5765,-0.25823 0.57666,-0.57664 3.9e-4,-0.3188 -0.25786,-0.57749 -0.57666,-0.57764 z m -3.68417,1.06594 c -0.59912,-0.11102 -0.59871,0.77581 -1.33095,0.95332 -0.73226,0.17753 -0.79925,-1.22044 -1.62026,0.31066 -0.88758,1.86392 -0.19915,2.84109 -0.22134,3.86181 -0.0222,1.02074 -0.53269,1.90803 0.59898,1.81928 1.13167,-0.0887 1.37534,-1.28727 2.26293,-2.21923 0.88758,-0.93196 0.93237,-1.35355 0.99894,-2.64057 0.0665,-1.28699 -0.0892,-1.97432 -0.6883,-2.08527 z m 3.02307,0.57666 c -0.64164,-0.0601 -1.13682,0.54654 -1.29212,1.73093 -0.0665,1.95267 0.48872,2.61796 1.64257,2.57357 1.15386,-0.0443 1.1762,-0.42174 0.9543,-1.73093 -0.22188,-1.30919 -0.24463,-2.2191 -1.02129,-2.50756 -0.0971,-0.0361 -0.1918,-0.0575 -0.28346,-0.0659 z m 14.49689,0.39802 c -0.20034,-0.015 -0.32737,0.0763 -0.40385,0.21164 -0.20397,0.36086 -0.26678,0.95715 -1.34942,0.76886 -1.08264,-0.18829 -1.31761,-0.67474 -1.67849,-0.0941 -0.67763,1.98116 0.64188,3.77213 2.13381,3.38904 1.86715,-0.5178 2.7146,-0.81563 3.07546,-0.79993 0.3609,0.015 1.28628,-0.78447 -0.0631,-2.22798 -0.84338,-0.9022 -1.38055,-1.22249 -1.71443,-1.24747 z m 3.09877,0.91546 c -0.53446,-0.0252 -0.74488,0.5055 -0.0708,1.70375 1.88612,2.26334 2.8852,0.77717 1.64258,-0.68733 -0.54365,-0.64072 -1.15602,-0.99686 -1.57172,-1.01642 z m -10.70011,0.40676 c -0.35819,-0.0338 -0.57596,0.1717 -0.46499,0.80964 0.17752,1.02074 0.53185,0.99825 0.50966,1.81928 0.0665,1.93049 0.53281,2.75123 1.75325,2.59591 1.22043,-0.15536 1.86436,-2.06337 1.15429,-3.37255 -0.71008,-1.3092 -1.46466,-1.17619 -2.19692,-1.5756 -0.27459,-0.14973 -0.54036,-0.25639 -0.75529,-0.27668 z m -28.42392,1.25331 c -0.41693,-4.5e-4 -0.75519,0.33737 -0.75527,0.7543 8e-5,0.41694 0.33833,0.75476 0.75527,0.75431 0.41657,-7e-5 0.75424,-0.33774 0.75432,-0.75431 -8e-5,-0.41656 -0.33776,-0.75423 -0.75432,-0.7543 z m 1.8251,1.94935 c -0.56914,-0.0244 -1.45813,0.38825 -2.27166,0.63198 -1.92739,-0.26507 -2.54728,2.52575 -1.57269,3.2978 v 9.7e-4 c 0.95414,0.66571 1.39711,0.62066 2.04061,-0.0892 0.6435,-0.71009 0.17809,-1.42002 0.86594,-1.53095 0.68787,-0.11102 1.66409,-0.73198 1.53095,-1.66395 -0.0254,-0.4599 -0.25165,-0.63185 -0.59315,-0.64654 z m 35.70877,1.76198 c -1.78777,-0.0853 -2.39687,1.86587 0.47666,2.39011 3.28406,0.59913 3.81691,-0.62063 0.35532,-2.21827 -0.29678,-0.10539 -0.57658,-0.15968 -0.83198,-0.1719 z m -22.57875,3.38906 c -0.46564,3e-4 -0.8429,0.37798 -0.84267,0.84362 3.1e-4,0.46526 0.37741,0.84235 0.84267,0.84265 0.46563,2.2e-4 0.84329,-0.37702 0.8436,-0.84265 2.3e-4,-0.46601 -0.37759,-0.84384 -0.8436,-0.84362 z"
       id="path1892"
       inkscape:connector-curvature="0"
       sodipodi:nodetypes="ccccccccccccccccscccccccccccccccccccccccccccccccccccccccccccccccccsccccccccccccccccccccccccccccccccccccccccccccccccccccccccccccccscccccccccccccccccccccccccccccccccccccccccccccccccccccccccccccccccscccccscccccccccccccccccccccccccccccccccccccccccccccccccccccscccccccccccccccscccccccccccccccccccccccccc"
       inkscape:export-filename="/home/vit/ProjectG70/godot3/polar_olympics/game214/textures/water_splash.png"
       inkscape:export-xdpi="96"
       inkscape:export-ydpi="96" />
    <path
       style="color:#000000;clip-rule:nonzero;display:inline;overflow:visible;visibility:visible;opacity:1;isolation:auto;mix-blend-mode:normal;color-interpolation:sRGB;color-interpolation-filters:linearRGB;solid-color:#000000;solid-opacity:1;fill:url(#radialGradient2042);fill-opacity:1;fill-rule:evenodd;stroke:none;stroke-width:0.49704725px;stroke-linecap:butt;stroke-linejoin:miter;stroke-miterlimit:4;stroke-dasharray:none;stroke-dashoffset:0;stroke-opacity:1;color-rendering:auto;image-rendering:auto;shape-rendering:auto;text-rendering:auto;enable-background:accumulate"
       d="m -621.95512,-205.57223 c -0.52379,0.0196 -0.50554,1.37086 -0.15762,1.63866 0.56432,0.77036 1.73071,0.002 1.03405,-0.90485 -0.38355,-0.54484 -0.67148,-0.74147 -0.87643,-0.73381 z m 28.65148,6.53707 c -0.1135,10e-4 -0.24256,0.012 -0.39378,0.031 -1.20937,0.69238 -1.22891,1.70203 -1.01441,2.90163 2.20802,3.42993 4.3761,-0.49934 3.38998,-1.43764 -1.17766,-1.06707 -1.18733,-1.50427 -1.98179,-1.495 z m -3.58532,0.93586 c -0.0503,-5.3e-4 -0.0994,0.002 -0.14727,0.006 -0.57416,0.0541 -0.97428,0.47025 -1.27383,1.43557 -0.86666,3.50013 3.40283,1.42435 1.90841,-1.37562 -0.17473,-0.0416 -0.33643,-0.0648 -0.48731,-0.0661 z m -34.36431,1.47019 c -0.85586,0.0115 -1.41162,0.26557 -1.43298,0.58601 -0.0341,0.51272 0.91133,0.39222 0.77463,0.87075 -0.13674,0.47852 -1.08243,0.90648 -0.2279,1.59009 1.23052,0.78616 1.47017,0.40995 2.18798,-0.37621 0.7178,-0.78616 1.53768,0.30758 2.11874,0.0341 0.58108,-0.27343 0.20549,-1.87985 -1.60611,-2.42673 -0.67935,-0.20509 -1.30086,-0.28504 -1.81436,-0.27802 z m 26.37617,1.27331 c -0.0841,0.006 -0.17201,0.0374 -0.26561,0.0997 -0.6657,0.44381 -0.35561,0.57697 -0.39998,1.86397 -0.45538,1.50263 2.70768,0.75859 2.04122,-0.39895 -0.46877,-0.64904 -0.82053,-1.50377 -1.29295,-1.56321 -0.0272,-0.003 -0.0546,-0.004 -0.0827,-0.002 z m -8.56692,1.30793 c -0.61247,0.0283 -1.64371,0.35425 -1.78077,0.63769 -0.28129,0.58174 -0.0588,1.60225 0.78445,2.17919 1.64203,0.88759 1.53673,0.3864 1.70481,-0.7586 0.17029,-1.16008 0.54531,-1.51902 -0.47543,-2.05156 -0.0666,-0.009 -0.14556,-0.0108 -0.23306,-0.007 z m -3.31711,1.44074 c -0.16025,-0.004 -0.33203,0.0773 -0.53175,0.27699 -0.27255,1.28759 -2.53613,0.946 -2.26136,2.59157 0.32245,1.93113 4.02114,0.50092 3.21582,-1.16685 -0.21523,-0.44576 0.77886,-0.86239 0.43357,-1.22215 -0.18416,-0.19188 -0.46291,-0.35676 -0.85628,-0.47956 z m 14.57327,2.2655 c -0.24094,5e-5 -0.4361,0.19572 -0.43615,0.43666 5e-5,0.24093 0.19521,0.4361 0.43615,0.43615 0.24093,-5e-5 0.4361,-0.19522 0.43615,-0.43615 -5e-5,-0.24094 -0.19522,-0.43661 -0.43615,-0.43666 z m 5.43223,0.53433 c -0.27753,-5.3e-4 -0.50271,0.22425 -0.50281,0.50178 1.1e-4,0.27752 0.22529,0.5022 0.50281,0.50178 0.27715,-1e-4 0.50167,-0.22463 0.50178,-0.50178 -10e-5,-0.27716 -0.22462,-0.50168 -0.50178,-0.50178 z m -26.46092,1.0356 c -0.22606,0.001 -0.43624,0.0213 -0.62838,0.0574 -1.15401,0.21073 -1.81533,1.95271 0.84956,2.35127 3.89652,0.58277 1.53723,-2.30529 0.0104,-2.40347 -0.0789,-0.004 -0.15616,-0.006 -0.23151,-0.005 z m 33.04191,0.69918 c -0.29831,3e-5 -0.54,0.25978 -0.54001,0.58032 10e-6,0.32055 0.2417,0.5803 0.54001,0.58033 0.29831,-3e-5 0.54052,-0.25978 0.54054,-0.58033 -2e-5,-0.32054 -0.24223,-0.58029 -0.54054,-0.58032 z m 11.31197,1.06557 c -0.37036,0 -0.67076,0.29988 -0.67076,0.67024 0,0.37036 0.3004,0.67077 0.67076,0.67076 0.37037,0 0.67025,-0.3004 0.67025,-0.67076 0,-0.37036 -0.29988,-0.67024 -0.67025,-0.67024 z m -47.82343,1.40043 c -1.05799,-0.002 -2.21594,2.4912 -1.32447,3.64267 1.15386,1.0651 1.91773,0.57185 2.27273,-0.31574 2.22885,-0.42583 1.73856,-3.09419 -0.94826,-3.32693 z m 41.10757,1.68827 c -0.37712,-1e-4 -0.68275,0.30552 -0.68265,0.68264 -1e-4,0.37711 0.30553,0.68275 0.68265,0.68265 0.37683,-2.7e-4 0.68222,-0.30582 0.68212,-0.68265 10e-5,-0.37684 -0.30529,-0.68234 -0.68212,-0.68264 z m 6.42596,2.21278 c -0.36012,0.0211 -0.69644,0.15347 -0.96842,0.43822 -1.02514,1.09055 0.0784,1.92276 0.51263,2.41225 0.86351,0.97339 1.53105,0.95597 2.1854,0.65061 0.65432,-0.30535 1.61069,-1.28149 0.56379,-2.45928 -0.59325,-0.59603 -1.50115,-1.08828 -2.2934,-1.0418 z m -25.71109,2.98741 c -0.89703,-0.0168 -1.61386,0.58965 -1.75752,1.30949 -0.099,0.51986 -1.35211,0.47188 -1.66398,0.77876 -0.30565,0.30077 0.33288,0.95749 -0.0553,1.36994 -0.78427,0.8333 -1.28238,1.00029 -0.38292,3.70985 0.14707,2.892 0.72158,4.40021 2.69079,4.82761 2.18306,0.47382 4.07986,1.65338 4.76612,0.82011 0.68623,-0.83331 0.88696,-0.32466 1.79989,-1.08107 1.10554,-0.916 0.43633,-1.67491 1.54616,-1.77509 0.45963,-0.0415 0.28211,-0.73373 0.47697,-1.40508 0.21388,-0.73686 0.75933,-1.22988 0.3545,-2.36368 -0.30829,-0.86341 -0.70833,-1.67574 -1.18907,-2.35231 -0.27414,-0.38581 -0.10911,-0.88906 -0.73536,-1.048 -2.20215,-0.5589 -1.61445,-2.28849 -2.56522,-2.24585 -1.41822,0.0636 -1.35692,0.35551 -1.98696,-0.0873 -0.4453,-0.313 -0.89037,-0.44968 -1.29811,-0.45734 z m 28.34245,3.92483 c -0.0611,0.002 -0.12241,0.0147 -0.185,0.0388 -0.0714,0.028 -0.14497,0.0696 -0.22221,0.12609 -0.61792,0.45153 -1.0873,0.58712 -1.05936,1.26555 0.0279,0.67844 0.9077,0.61216 0.11937,1.46658 -0.78832,0.85444 -1.23403,0.98229 -0.68368,1.90376 2.76675,1.21465 4.88981,-1.89992 3.75171,-3.25355 -0.87135,-1.03638 -1.29338,-1.56097 -1.72083,-1.54719 z m -50.69923,6.07146 c -0.59129,0.003 -1.27472,0.86272 -1.74201,0.6966 -2.0505,-0.73027 -2.31068,0.77936 -2.23397,1.36943 0.0703,0.91298 0.91239,0.49155 1.33377,0.632 0.42137,0.14046 0.52721,0.7369 1.40508,-0.0357 0.87786,-0.7725 2.23485,-1.22934 1.9575,-1.95802 -0.20162,-0.52975 -0.4516,-0.70558 -0.72037,-0.70435 z m 50.20727,1.4671 c -1.16491,0.0471 -1.88408,0.91381 -0.22789,1.63401 2.23972,0.22159 2.64237,-1.05252 1.08211,-1.52343 -0.29254,-0.0882 -0.58539,-0.12136 -0.85422,-0.11058 z m -3.66696,7.83983 c -1.76831,-0.0245 -2.42776,1.12959 0.56845,2.76211 0.65899,0.53348 1.41298,0.18103 1.78955,-0.22686 0.37657,-0.40795 0.60344,-0.32939 0.57206,0.42374 -0.0314,0.75314 0.54982,0.85322 1.45986,0.97875 0.91005,0.12549 1.57279,-0.24399 1.4459,-1.3379 -0.1138,-0.9812 -0.43371,-0.50393 -1.15548,-1.31982 -0.72176,-0.81591 -1.61066,-0.25101 -2.63653,-0.83664 -0.74147,-0.296 -1.45437,-0.43522 -2.04381,-0.44338 z m -50.65117,2.18591 c -0.42466,0.0181 -0.7274,0.26701 -1.05626,0.64286 -0.68488,1.1526 0.26768,1.78749 0.26768,1.78749 0,0 -1.68731,1.92108 -0.65164,2.97346 1.03567,1.05237 3.45763,-1.65372 3.97547,-2.57246 0.51783,-0.91873 1.9e-4,-1.68725 -1.25264,-2.40553 -0.54811,-0.31425 -0.95231,-0.43989 -1.28261,-0.42582 z m 44.55801,0.16227 c -1.32051,-0.0597 -1.23591,2.36985 -0.72141,3.0458 0.66467,0.79011 1.62964,0.63978 2.38384,0.38603 1.66489,-1.15467 0.0297,-2.85588 -1.20613,-3.32848 -0.16775,-0.0642 -0.3197,-0.0972 -0.4563,-0.10335 z m -38.92838,0.0801 c -0.38837,-0.0209 -0.71393,0.24175 -0.7891,0.86816 -0.0167,1.38646 1.0356,1.82123 1.70378,1.75441 0.66817,-0.0668 0.9021,-0.76852 0.25063,-1.78748 -0.32574,-0.50949 -0.77693,-0.81421 -1.16531,-0.83509 z m 5.53765,1.4242 c -0.73665,2.91995 -2.3551,2.55366 -2.63343,2.81998 -2.01555,1.92865 -1.90943,2.90283 -1.3193,3.6959 0.67417,0.61189 1.49821,-0.6617 2.43964,-1.28933 0.94142,-0.62762 1.06352,-1.12754 1.4087,-2.0376 0.34519,-0.91003 -0.67064,-0.80026 0.0512,-1.55339 0.72174,-0.75315 1.05745,-1.63556 0.0532,-1.63556 z m 10.76921,2.48194 c -0.3088,2.6e-4 -0.55911,0.37772 -0.55896,0.84336 2.1e-4,0.46525 0.25041,0.84253 0.55896,0.84284 0.30879,2.2e-4 0.55909,-0.37722 0.5593,-0.84284 1.5e-4,-0.46601 -0.25026,-0.84358 -0.5593,-0.84336 z m 4.13521,1.08124 c -0.23143,-1.9e-4 -0.41919,0.18748 -0.41891,0.41891 1.1e-4,0.23114 0.18777,0.41843 0.41891,0.41816 0.23087,-1.1e-4 0.41804,-0.18729 0.41816,-0.41816 1.9e-4,-0.23116 -0.18701,-0.41881 -0.41816,-0.41891 z m 23.60434,0.12187 c -1.16107,-0.008 -1.95449,0.0886 -1.3131,1.68671 0.17264,0.84729 1.06348,2.28776 2.14612,1.89549 2.12383,-0.87345 2.1258,-1.2205 1.4888,-2.11098 -0.83159,-1.16109 -0.78123,-1.45806 -1.80505,-1.46554 -0.17777,-10e-4 -0.3509,-0.005 -0.51677,-0.006 z m -27.54903,2.52182 c -0.41041,0.005 -0.44554,0.63565 -1.01323,0.76849 -1.11417,0.68854 -1.52725,1.2715 -1.52303,3.33054 -0.0184,0.8148 -0.44056,1.52327 0.49528,1.45242 0.93584,-0.0708 1.13733,-1.02777 1.87133,-1.77169 0.73398,-0.74393 0.77142,-1.08054 0.82647,-2.10789 0.055,-1.02732 -0.0738,-1.57588 -0.56922,-1.66444 -0.031,-0.006 -0.0602,-0.008 -0.0876,-0.007 z m 3.00634,-1.3219 c -0.58366,0.0215 -1.02798,0.62441 -1.17357,1.73478 -0.0563,0.68674 2.09727,-0.51195 1.29243,-1.73116 -0.0401,-0.004 -0.0799,-0.005 -0.11886,-0.004 z m 12.62766,1.24334 c -0.0772,-0.0139 -0.15111,0.0331 -0.24133,0.17828 -0.67763,1.98116 0.10745,3.32141 1.59938,2.93832 1.86715,-0.5178 2.04623,-0.49836 2.40709,-0.48266 0.3609,0.015 1.52552,-0.0257 0.22117,-1.50998 -1.0609,-1.20731 -1.9807,-0.25488 -2.68252,-0.35037 -0.81198,-0.14122 -1.0723,-0.73197 -1.30379,-0.77359 z m -22.21364,0.60513 c -0.81599,0.05 -0.82903,1.39266 -1.34462,1.69033 -1.08498,0.50064 -1.69745,0.79567 -1.75389,1.87999 -0.0312,0.59929 0.91854,0.66933 0.58136,1.39165 -0.82723,1.77207 -0.53242,2.49584 0.30747,2.66082 0.83989,0.16498 2.21259,-1.54582 2.42156,-2.95073 0.33221,-2.23347 1.24711,-3.74288 -0.21188,-4.67206 z m 28.34039,0.33951 c -0.36773,0.036 -0.54206,0.46418 -0.0419,1.35082 0.58318,0.9437 1.73282,0.0251 1.02474,-0.75447 -0.29365,-0.41528 -0.69687,-0.62432 -0.98289,-0.59635 z m -18.27433,2.59519 c -0.51677,0.0295 -1.05376,0.40167 -1.14825,1.41749 0.14174,0.8032 0.70848,0.51934 0.70848,0.51934 0,0 -0.33081,2.12627 0.23616,2.83497 0.56696,0.70871 0.80327,0.40153 0.92139,-1.41748 0.11812,-1.81901 0.33058,-2.00792 0.30696,-2.71663 -0.0118,-0.35435 -0.50798,-0.66722 -1.02474,-0.63769 z m 10.42882,0.51211 c -0.15631,-0.003 -0.34466,0.0177 -0.57258,0.0532 -1.21557,0.1897 -1.47129,1.44713 -1.12551,2.83601 0.7467,1.28866 1.16311,1.13447 1.90634,1.51308 0.2787,0.14193 0.54733,0.24106 0.76275,0.25528 0.359,0.0237 1.13771,-0.54248 1.0088,-1.17704 -0.20623,-1.01533 -1.1267,-0.62834 -1.12766,-1.44967 -0.0982,-1.56638 -0.17481,-2.0183 -0.85214,-2.03089 z m -30.87254,2.24793 c -0.45703,-0.0196 -1.17089,0.31174 -1.82417,0.50746 -1.54775,-0.21286 -2.04561,2.02844 -1.26298,2.64842 v 10e-4 c 0.7662,0.53458 1.28728,0.82893 1.80403,0.25889 0.51675,-0.57021 0.26102,-1.21109 0.81338,-1.30017 0.55239,-0.0892 1.05259,-0.84789 0.94568,-1.59629 -0.0204,-0.36931 -0.20171,-0.50703 -0.47594,-0.51883 z m 37.65765,0.30541 c -0.0552,0.002 -0.10868,0.006 -0.16071,0.0119 -1.45672,0.16906 -1.67841,1.87971 0.71675,1.93114 2.73736,0.0588 2.99881,-1.03117 -0.0207,-1.89962 -0.19086,-0.0361 -0.36992,-0.0492 -0.53537,-0.0434 z m -23.18773,2.04535 c -0.2673,1.7e-4 -0.48382,0.21691 -0.48369,0.48421 1.8e-4,0.26708 0.21661,0.48352 0.48369,0.48369 0.26729,1.3e-4 0.48403,-0.2164 0.48421,-0.48369 1.3e-4,-0.26751 -0.2167,-0.48433 -0.48421,-0.48421 z"
       id="path1985"
       inkscape:connector-curvature="0"
       sodipodi:nodetypes="ccccccccccccccccccccccccccccccssccccscccccccccccscccsccccccssccsccccccccccsccccscccccccccccssccccccccccccccccccccccccccscccccccscccccccssccsscccscccccccccccccccccccccccccccccccccccccccccccsccccccsccscccccccccccccccccccccsccccccccccccccc"
       inkscape:export-filename="/home/vit/ProjectG70/godot3/polar_olympics/game214/textures/water_splash.png"
       inkscape:export-xdpi="96"
       inkscape:export-ydpi="96" />
    <g
       id="g2082"
       inkscape:export-filename="/home/vit/ProjectG70/godot3/polar_olympics/game214/textures/water_splash.png"
       inkscape:export-xdpi="96"
       inkscape:export-ydpi="96"
       transform="translate(127.07117,19.719612)">
      <circle
         r="43.78595"
         cy="-189.69019"
         cx="-907.79895"
         id="circle2046"
         style="opacity:0;vector-effect:none;fill:#335bb6;fill-opacity:0.90476194;stroke:none;stroke-width:1.07678974;stroke-linecap:round;stroke-linejoin:round;stroke-miterlimit:4;stroke-dasharray:none;stroke-opacity:1" />
      <circle
         style="opacity:0;vector-effect:none;fill:#335bb6;fill-opacity:0.90476194;stroke:none;stroke-width:1.07678974;stroke-linecap:round;stroke-linejoin:round;stroke-miterlimit:4;stroke-dasharray:none;stroke-opacity:1"
         id="circle2044"
         cx="-820.22705"
         cy="-189.69019"
         r="43.78595" />
      <circle
         r="43.78595"
         cy="-189.69019"
         cx="-732.65515"
         id="circle2048"
         style="opacity:0;vector-effect:none;fill:#335bb6;fill-opacity:0.90476194;stroke:none;stroke-width:1.07678974;stroke-linecap:round;stroke-linejoin:round;stroke-miterlimit:4;stroke-dasharray:none;stroke-opacity:1" />
      <circle
         style="opacity:0;vector-effect:none;fill:#335bb6;fill-opacity:0.90476194;stroke:none;stroke-width:1.07678974;stroke-linecap:round;stroke-linejoin:round;stroke-miterlimit:4;stroke-dasharray:none;stroke-opacity:1"
         id="circle2050"
         cx="-645.08325"
         cy="-189.69019"
         r="43.78595" />
    </g>
    <path
       sodipodi:nodetypes="cccccccccccccccsccccsscsccscccccscccsccscccssccscccccccsccsscccsccccccccsssccsccccccccccccsccccccccccccccccccccccccccccccccccccsccccccccccscccccccccccccccccc"
       inkscape:connector-curvature="0"
       id="path1999"
       d="m -505.5218,-204.43143 c -0.0261,0.0155 -0.0544,0.0355 -0.0867,0.0603 -0.18617,0.32354 -0.0551,0.56018 0.15551,0.80929 0.97028,0.49721 0.94305,-0.70581 0.58942,-0.79031 -0.41512,-0.0885 -0.47607,-0.18854 -0.65821,-0.0793 z m -43.10732,5.02046 c -0.34948,0.005 -0.57641,0.10844 -0.58514,0.23929 -0.0139,0.20935 0.37213,0.16015 0.31631,0.35555 -0.0558,0.1954 -0.44199,0.37015 -0.0931,0.64929 0.50247,0.32101 0.60032,0.1674 0.89343,-0.15362 0.2931,-0.32101 0.62789,0.12559 0.86515,0.0139 0.23728,-0.11165 0.0839,-0.7676 -0.65582,-0.99091 -0.27741,-0.0838 -0.53119,-0.11639 -0.74087,-0.11353 z m 28.24801,-1.22912 c -0.0982,0.007 -0.20084,0.0437 -0.31014,0.11641 -0.77729,0.51822 -0.41522,0.6737 -0.46703,2.17646 -0.53172,1.75453 3.16161,0.88577 2.38341,-0.46582 -0.54736,-0.75785 -0.95808,-1.75587 -1.50969,-1.82528 -0.0318,-0.004 -0.0638,-0.005 -0.0966,-0.002 z m -11.68546,3.14982 c -0.33152,0.0154 -1.10233,0.0736 -1.17651,0.22705 -0.15226,0.31489 -0.20908,0.82005 0.24743,1.13234 0.55473,0.17975 1.08796,0.14064 1.17894,-0.47913 0.0922,-0.62793 0.42881,-0.58837 -0.1237,-0.87662 -0.0361,-0.005 -0.50402,-0.0531 -0.12616,-0.004 z m 14.82554,2.70493 c -0.28134,6e-5 -0.50921,0.22853 -0.50927,0.50986 6e-5,0.28132 0.22793,0.50921 0.50927,0.50927 0.28132,-6e-5 0.50921,-0.22795 0.50926,-0.50927 -5e-5,-0.28133 -0.22794,-0.5098 -0.50926,-0.50986 z m 6.3429,0.62391 c -0.32407,-6.2e-4 -0.587,0.26184 -0.5871,0.58589 1.2e-4,0.32405 0.26306,0.5864 0.5871,0.5859 0.32361,-1.1e-4 0.58576,-0.26228 0.58589,-0.5859 -1.2e-4,-0.32362 -0.26226,-0.58578 -0.58589,-0.58589 z m -31.17314,1.20921 c 0.11375,-0.0933 -0.31761,0.0149 -0.4575,0.04 -0.84018,0.14685 -1.32166,1.36078 0.61852,1.63853 2.83687,0.40612 1.11919,-1.60648 0.007,-1.6749 -0.0574,-0.003 -0.20197,0.0238 -0.16855,-0.004 z m 38.85739,0.81639 c -0.34832,3e-5 -0.63053,0.30333 -0.63055,0.67762 2e-5,0.37429 0.28223,0.67757 0.63055,0.6776 0.34832,-3e-5 0.63113,-0.30331 0.63115,-0.6776 -2e-5,-0.37429 -0.28283,-0.67759 -0.63115,-0.67762 z m 13.20834,1.2442 c -0.43245,0 -0.78322,0.35016 -0.78321,0.78261 0,0.43244 0.35076,0.78322 0.78321,0.7832 0.43245,0 0.7826,-0.35076 0.7826,-0.7832 0,-0.43245 -0.35015,-0.78261 -0.7826,-0.78261 z m -56.147,4.89525 c -0.57553,-7.3e-4 -1.20543,1.06705 -0.72048,1.56025 0.62768,0.45622 1.04321,0.24494 1.23633,-0.13523 1.21245,-0.1824 0.94574,-1.32533 -0.51585,-1.42502 z m 48.30526,-1.28875 c -0.44034,-1.1e-4 -0.79719,0.35675 -0.79708,0.79708 -1.1e-4,0.44034 0.35674,0.79721 0.79708,0.79709 0.44001,-3e-4 0.7966,-0.35708 0.79649,-0.79709 1.1e-4,-0.44 -0.35648,-0.79673 -0.79649,-0.79708 z m 10.38024,4.76438 c -0.10512,0.006 -0.2033,0.0448 -0.2827,0.12792 -0.29926,0.31836 0.0229,0.5613 0.14965,0.70419 0.25207,0.28416 0.44694,0.27907 0.63796,0.18993 0.19101,-0.0891 0.4702,-0.37409 0.16459,-0.71792 -0.17319,-0.17399 -0.43822,-0.31769 -0.6695,-0.30412 z m -30.97591,4.02205 c -0.61027,-0.015 -1.09796,0.52567 -1.19569,1.1674 0.12164,1.43202 -2.3046,0.95214 -1.51002,2.01717 3.5295,4.73082 -3.74305,3.21206 1.3671,7.91112 1.1366,1.04517 2.61027,1.14324 3.07715,0.40039 0.46686,-0.74289 0.9814,-0.19495 1.60249,-0.86928 0.56129,-1.50093 1.06953,-0.8986 1.35277,-2.26815 0.14551,-0.6569 0.24908,-2.43897 -0.79825,-2.41431 -3.35783,0.079 -0.98436,-4.8528 -2.34573,-5.76588 -0.96485,0.0567 -0.23807,0.62405 -0.6667,0.22928 -0.30295,-0.27905 -0.60574,-0.40089 -0.88314,-0.40771 z m 30.54611,8.72703 c -0.20851,-0.61422 -0.78423,-0.86157 -0.90784,0.13561 0.23433,1.23009 0.97762,1.24438 0.9833,0.33764 10e-4,-0.16999 -0.0274,-0.3315 -0.0755,-0.47325 z m 2.71055,18.39796 c -0.23941,-0.77369 -1.62258,-0.22109 -1.90559,0.21571 -0.31767,0.54704 -0.0309,1.0722 0.2718,1.45439 1.01095,0.72041 1.65264,-0.5751 1.66883,-1.3856 0.002,-0.11001 -0.0103,-0.20447 -0.035,-0.2845 z m -61.59675,-12.14881 c -0.19128,-0.0103 -0.3516,0.11905 -0.38862,0.42755 -0.008,0.68281 0.51001,0.89693 0.83908,0.86402 0.32906,-0.0329 0.44426,-0.37848 0.12343,-0.88031 -0.16042,-0.25091 -0.38262,-0.40098 -0.57389,-0.41126 z m 6.38496,11.99279 c -0.42214,1.67329 -1.34961,1.46339 -1.5091,1.616 -1.15502,1.10523 -1.09422,1.66349 -0.75603,2.11796 0.38633,0.35066 0.85856,-0.37918 1.39805,-0.73885 0.53948,-0.35966 0.60945,-0.64614 0.80726,-1.16766 0.19782,-0.5215 -0.38431,-0.4586 0.0294,-0.89019 0.4136,-0.43159 0.60598,-0.93726 0.0305,-0.93726 z m 34.92852,17.42425 c -0.32796,2.8e-4 -0.59379,0.38812 -0.59361,0.86659 2.1e-4,0.47808 0.26592,0.86575 0.59361,0.86607 0.32795,2.1e-4 0.59377,-0.38761 0.59398,-0.86607 1.7e-4,-0.47885 -0.26577,-0.8668 -0.59398,-0.86659 z m -15.02409,-0.74202 c -0.27022,-2.2e-4 -0.48946,0.21891 -0.48913,0.48914 1.3e-4,0.26989 0.21924,0.48858 0.48913,0.48826 0.26958,-1.3e-4 0.48813,-0.21868 0.48826,-0.48826 2.3e-4,-0.2699 -0.21835,-0.48901 -0.48826,-0.48914 z m 31.71119,-7.67558 c -0.4462,-0.003 -0.75112,0.0341 -0.50463,0.64822 0.0663,0.32561 0.40871,0.87919 0.82477,0.72844 0.81619,-0.33567 0.81695,-0.46904 0.57215,-0.81126 -0.31958,-0.44621 -0.30023,-0.56034 -0.69369,-0.56322 -0.0683,-3.9e-4 -0.13485,-0.002 -0.1986,-0.002 z m -18.39634,-4.49681 c -0.0901,-0.0162 -0.17644,0.0386 -0.28179,0.20818 -0.79123,2.31329 0.12548,3.87822 1.86752,3.43091 2.18016,-0.60461 2.38927,-0.58191 2.81062,-0.56357 0.4214,0.0175 1.78126,-0.03 0.25825,-1.76313 -1.23877,-1.40971 -2.31275,-0.2976 -3.13223,-0.4091 -0.9481,-0.16489 -1.25206,-0.85468 -1.52237,-0.90329 z m 7.38214,1.82353 c -0.25574,0.025 -0.37699,0.32282 -0.0291,0.93944 0.40558,0.65631 1.20511,0.0175 0.71267,-0.52471 -0.20423,-0.28881 -0.48465,-0.43418 -0.68356,-0.41473 z m -9.38904,2.9077 c -0.1825,-0.004 -0.40243,0.0207 -0.66856,0.0621 -1.41935,0.22149 -1.71794,1.68973 -1.31419,3.31144 0.87188,1.50471 1.3581,1.32466 2.22593,1.76675 0.32542,0.16572 0.63907,0.28146 0.8906,0.29807 0.41919,0.0277 1.32844,-0.63342 1.17792,-1.37437 -0.24079,-1.18554 -1.31557,-0.73368 -1.31669,-1.6927 -0.11466,-1.82896 -0.20412,-2.35664 -0.99501,-2.37134 z m -32.64267,-2.23913 c -0.17855,-0.008 -0.45744,0.12179 -0.71265,0.19825 -0.60467,-0.0832 -0.79916,0.79246 -0.49342,1.03466 v 4e-4 c 0.29934,0.20885 0.50291,0.32384 0.70479,0.10115 0.20187,-0.22277 0.10197,-0.47315 0.31776,-0.50795 0.21579,-0.0349 0.41122,-0.33124 0.36945,-0.62362 -0.008,-0.14428 -0.0788,-0.19808 -0.18593,-0.20269 z m 6.84607,8.96201 c -0.26422,0.35298 -0.22249,0.83081 0.0933,1.06782 0.31607,0.23713 0.78683,0.14324 1.05168,-0.2097 1.50105,-1.78718 -0.63635,-1.48538 -1.14498,-0.85812 z"
       style="color:#000000;clip-rule:nonzero;display:inline;overflow:visible;visibility:visible;opacity:1;isolation:auto;mix-blend-mode:normal;color-interpolation:sRGB;color-interpolation-filters:linearRGB;solid-color:#000000;solid-opacity:1;fill:url(#radialGradient2040);fill-opacity:1;fill-rule:evenodd;stroke:none;stroke-width:0.58037376px;stroke-linecap:butt;stroke-linejoin:miter;stroke-miterlimit:4;stroke-dasharray:none;stroke-dashoffset:0;stroke-opacity:1;color-rendering:auto;image-rendering:auto;shape-rendering:auto;text-rendering:auto;enable-background:accumulate"
       inkscape:export-filename="/home/vit/ProjectG70/godot3/polar_olympics/game214/textures/water_splash.png"
       inkscape:export-xdpi="96"
       inkscape:export-ydpi="96" />
  </g>
</svg>
